G04 #@! TF.GenerationSoftware,KiCad,Pcbnew,(5.1.6)-1*
G04 #@! TF.CreationDate,2021-01-22T22:35:21+07:00*
G04 #@! TF.ProjectId,penelize-esp-led-strip,70656e65-6c69-47a6-952d-6573702d6c65,rev?*
G04 #@! TF.SameCoordinates,Original*
G04 #@! TF.FileFunction,Paste,Top*
G04 #@! TF.FilePolarity,Positive*
%FSLAX46Y46*%
G04 Gerber Fmt 4.6, Leading zero omitted, Abs format (unit mm)*
G04 Created by KiCad (PCBNEW (5.1.6)-1) date 2021-01-22 22:35:21*
%MOMM*%
%LPD*%
G01*
G04 APERTURE LIST*
%ADD10R,1.800000X2.500000*%
%ADD11R,3.800000X2.000000*%
%ADD12R,1.500000X2.000000*%
%ADD13R,2.500000X1.000000*%
%ADD14R,1.000000X1.800000*%
%ADD15R,0.900000X0.800000*%
%ADD16R,2.000000X3.000000*%
%ADD17R,0.800000X0.900000*%
%ADD18R,2.000000X3.800000*%
%ADD19R,2.000000X1.500000*%
%ADD20R,1.000000X2.500000*%
%ADD21R,1.800000X1.000000*%
G04 APERTURE END LIST*
G04 #@! TO.C,C1*
G36*
G01*
X97425000Y-92143750D02*
X97425000Y-92656250D01*
G75*
G02*
X97206250Y-92875000I-218750J0D01*
G01*
X96768750Y-92875000D01*
G75*
G02*
X96550000Y-92656250I0J218750D01*
G01*
X96550000Y-92143750D01*
G75*
G02*
X96768750Y-91925000I218750J0D01*
G01*
X97206250Y-91925000D01*
G75*
G02*
X97425000Y-92143750I0J-218750D01*
G01*
G37*
G36*
G01*
X95850000Y-92143750D02*
X95850000Y-92656250D01*
G75*
G02*
X95631250Y-92875000I-218750J0D01*
G01*
X95193750Y-92875000D01*
G75*
G02*
X94975000Y-92656250I0J218750D01*
G01*
X94975000Y-92143750D01*
G75*
G02*
X95193750Y-91925000I218750J0D01*
G01*
X95631250Y-91925000D01*
G75*
G02*
X95850000Y-92143750I0J-218750D01*
G01*
G37*
G04 #@! TD*
G04 #@! TO.C,C2*
G36*
G01*
X117356250Y-110037500D02*
X116843750Y-110037500D01*
G75*
G02*
X116625000Y-109818750I0J218750D01*
G01*
X116625000Y-109381250D01*
G75*
G02*
X116843750Y-109162500I218750J0D01*
G01*
X117356250Y-109162500D01*
G75*
G02*
X117575000Y-109381250I0J-218750D01*
G01*
X117575000Y-109818750D01*
G75*
G02*
X117356250Y-110037500I-218750J0D01*
G01*
G37*
G36*
G01*
X117356250Y-111612500D02*
X116843750Y-111612500D01*
G75*
G02*
X116625000Y-111393750I0J218750D01*
G01*
X116625000Y-110956250D01*
G75*
G02*
X116843750Y-110737500I218750J0D01*
G01*
X117356250Y-110737500D01*
G75*
G02*
X117575000Y-110956250I0J-218750D01*
G01*
X117575000Y-111393750D01*
G75*
G02*
X117356250Y-111612500I-218750J0D01*
G01*
G37*
G04 #@! TD*
G04 #@! TO.C,C3*
G36*
G01*
X115225001Y-110300000D02*
X114374999Y-110300000D01*
G75*
G02*
X114125000Y-110050001I0J249999D01*
G01*
X114125000Y-109149999D01*
G75*
G02*
X114374999Y-108900000I249999J0D01*
G01*
X115225001Y-108900000D01*
G75*
G02*
X115475000Y-109149999I0J-249999D01*
G01*
X115475000Y-110050001D01*
G75*
G02*
X115225001Y-110300000I-249999J0D01*
G01*
G37*
G36*
G01*
X115225001Y-113000000D02*
X114374999Y-113000000D01*
G75*
G02*
X114125000Y-112750001I0J249999D01*
G01*
X114125000Y-111849999D01*
G75*
G02*
X114374999Y-111600000I249999J0D01*
G01*
X115225001Y-111600000D01*
G75*
G02*
X115475000Y-111849999I0J-249999D01*
G01*
X115475000Y-112750001D01*
G75*
G02*
X115225001Y-113000000I-249999J0D01*
G01*
G37*
G04 #@! TD*
G04 #@! TO.C,C4*
G36*
G01*
X102774999Y-108800000D02*
X103625001Y-108800000D01*
G75*
G02*
X103875000Y-109049999I0J-249999D01*
G01*
X103875000Y-109950001D01*
G75*
G02*
X103625001Y-110200000I-249999J0D01*
G01*
X102774999Y-110200000D01*
G75*
G02*
X102525000Y-109950001I0J249999D01*
G01*
X102525000Y-109049999D01*
G75*
G02*
X102774999Y-108800000I249999J0D01*
G01*
G37*
G36*
G01*
X102774999Y-111500000D02*
X103625001Y-111500000D01*
G75*
G02*
X103875000Y-111749999I0J-249999D01*
G01*
X103875000Y-112650001D01*
G75*
G02*
X103625001Y-112900000I-249999J0D01*
G01*
X102774999Y-112900000D01*
G75*
G02*
X102525000Y-112650001I0J249999D01*
G01*
X102525000Y-111749999D01*
G75*
G02*
X102774999Y-111500000I249999J0D01*
G01*
G37*
G04 #@! TD*
G04 #@! TO.C,C5*
G36*
G01*
X95943750Y-103775000D02*
X96456250Y-103775000D01*
G75*
G02*
X96675000Y-103993750I0J-218750D01*
G01*
X96675000Y-104431250D01*
G75*
G02*
X96456250Y-104650000I-218750J0D01*
G01*
X95943750Y-104650000D01*
G75*
G02*
X95725000Y-104431250I0J218750D01*
G01*
X95725000Y-103993750D01*
G75*
G02*
X95943750Y-103775000I218750J0D01*
G01*
G37*
G36*
G01*
X95943750Y-105350000D02*
X96456250Y-105350000D01*
G75*
G02*
X96675000Y-105568750I0J-218750D01*
G01*
X96675000Y-106006250D01*
G75*
G02*
X96456250Y-106225000I-218750J0D01*
G01*
X95943750Y-106225000D01*
G75*
G02*
X95725000Y-106006250I0J218750D01*
G01*
X95725000Y-105568750D01*
G75*
G02*
X95943750Y-105350000I218750J0D01*
G01*
G37*
G04 #@! TD*
G04 #@! TO.C,D1*
G36*
G01*
X94037500Y-109656250D02*
X94037500Y-108743750D01*
G75*
G02*
X94281250Y-108500000I243750J0D01*
G01*
X94768750Y-108500000D01*
G75*
G02*
X95012500Y-108743750I0J-243750D01*
G01*
X95012500Y-109656250D01*
G75*
G02*
X94768750Y-109900000I-243750J0D01*
G01*
X94281250Y-109900000D01*
G75*
G02*
X94037500Y-109656250I0J243750D01*
G01*
G37*
G36*
G01*
X95912500Y-109656250D02*
X95912500Y-108743750D01*
G75*
G02*
X96156250Y-108500000I243750J0D01*
G01*
X96643750Y-108500000D01*
G75*
G02*
X96887500Y-108743750I0J-243750D01*
G01*
X96887500Y-109656250D01*
G75*
G02*
X96643750Y-109900000I-243750J0D01*
G01*
X96156250Y-109900000D01*
G75*
G02*
X95912500Y-109656250I0J243750D01*
G01*
G37*
G04 #@! TD*
D10*
G04 #@! TO.C,D2*
X132000000Y-112200000D03*
X132000000Y-108200000D03*
G04 #@! TD*
G04 #@! TO.C,D3*
X132200000Y-84200000D03*
X132200000Y-88200000D03*
G04 #@! TD*
G04 #@! TO.C,D4*
X132200000Y-124200000D03*
X132200000Y-120200000D03*
G04 #@! TD*
G04 #@! TO.C,D5*
X132200000Y-96200000D03*
X132200000Y-100200000D03*
G04 #@! TD*
G04 #@! TO.C,R1*
G36*
G01*
X96550000Y-94456250D02*
X96550000Y-93943750D01*
G75*
G02*
X96768750Y-93725000I218750J0D01*
G01*
X97206250Y-93725000D01*
G75*
G02*
X97425000Y-93943750I0J-218750D01*
G01*
X97425000Y-94456250D01*
G75*
G02*
X97206250Y-94675000I-218750J0D01*
G01*
X96768750Y-94675000D01*
G75*
G02*
X96550000Y-94456250I0J218750D01*
G01*
G37*
G36*
G01*
X94975000Y-94456250D02*
X94975000Y-93943750D01*
G75*
G02*
X95193750Y-93725000I218750J0D01*
G01*
X95631250Y-93725000D01*
G75*
G02*
X95850000Y-93943750I0J-218750D01*
G01*
X95850000Y-94456250D01*
G75*
G02*
X95631250Y-94675000I-218750J0D01*
G01*
X95193750Y-94675000D01*
G75*
G02*
X94975000Y-94456250I0J218750D01*
G01*
G37*
G04 #@! TD*
G04 #@! TO.C,R2*
G36*
G01*
X94987500Y-90456250D02*
X94987500Y-89943750D01*
G75*
G02*
X95206250Y-89725000I218750J0D01*
G01*
X95643750Y-89725000D01*
G75*
G02*
X95862500Y-89943750I0J-218750D01*
G01*
X95862500Y-90456250D01*
G75*
G02*
X95643750Y-90675000I-218750J0D01*
G01*
X95206250Y-90675000D01*
G75*
G02*
X94987500Y-90456250I0J218750D01*
G01*
G37*
G36*
G01*
X96562500Y-90456250D02*
X96562500Y-89943750D01*
G75*
G02*
X96781250Y-89725000I218750J0D01*
G01*
X97218750Y-89725000D01*
G75*
G02*
X97437500Y-89943750I0J-218750D01*
G01*
X97437500Y-90456250D01*
G75*
G02*
X97218750Y-90675000I-218750J0D01*
G01*
X96781250Y-90675000D01*
G75*
G02*
X96562500Y-90456250I0J218750D01*
G01*
G37*
G04 #@! TD*
G04 #@! TO.C,R3*
G36*
G01*
X117743750Y-101775000D02*
X118256250Y-101775000D01*
G75*
G02*
X118475000Y-101993750I0J-218750D01*
G01*
X118475000Y-102431250D01*
G75*
G02*
X118256250Y-102650000I-218750J0D01*
G01*
X117743750Y-102650000D01*
G75*
G02*
X117525000Y-102431250I0J218750D01*
G01*
X117525000Y-101993750D01*
G75*
G02*
X117743750Y-101775000I218750J0D01*
G01*
G37*
G36*
G01*
X117743750Y-103350000D02*
X118256250Y-103350000D01*
G75*
G02*
X118475000Y-103568750I0J-218750D01*
G01*
X118475000Y-104006250D01*
G75*
G02*
X118256250Y-104225000I-218750J0D01*
G01*
X117743750Y-104225000D01*
G75*
G02*
X117525000Y-104006250I0J218750D01*
G01*
X117525000Y-103568750D01*
G75*
G02*
X117743750Y-103350000I218750J0D01*
G01*
G37*
G04 #@! TD*
G04 #@! TO.C,R4*
G36*
G01*
X118156250Y-98650000D02*
X117643750Y-98650000D01*
G75*
G02*
X117425000Y-98431250I0J218750D01*
G01*
X117425000Y-97993750D01*
G75*
G02*
X117643750Y-97775000I218750J0D01*
G01*
X118156250Y-97775000D01*
G75*
G02*
X118375000Y-97993750I0J-218750D01*
G01*
X118375000Y-98431250D01*
G75*
G02*
X118156250Y-98650000I-218750J0D01*
G01*
G37*
G36*
G01*
X118156250Y-100225000D02*
X117643750Y-100225000D01*
G75*
G02*
X117425000Y-100006250I0J218750D01*
G01*
X117425000Y-99568750D01*
G75*
G02*
X117643750Y-99350000I218750J0D01*
G01*
X118156250Y-99350000D01*
G75*
G02*
X118375000Y-99568750I0J-218750D01*
G01*
X118375000Y-100006250D01*
G75*
G02*
X118156250Y-100225000I-218750J0D01*
G01*
G37*
G04 #@! TD*
G04 #@! TO.C,R5*
G36*
G01*
X98656250Y-111225000D02*
X98143750Y-111225000D01*
G75*
G02*
X97925000Y-111006250I0J218750D01*
G01*
X97925000Y-110568750D01*
G75*
G02*
X98143750Y-110350000I218750J0D01*
G01*
X98656250Y-110350000D01*
G75*
G02*
X98875000Y-110568750I0J-218750D01*
G01*
X98875000Y-111006250D01*
G75*
G02*
X98656250Y-111225000I-218750J0D01*
G01*
G37*
G36*
G01*
X98656250Y-109650000D02*
X98143750Y-109650000D01*
G75*
G02*
X97925000Y-109431250I0J218750D01*
G01*
X97925000Y-108993750D01*
G75*
G02*
X98143750Y-108775000I218750J0D01*
G01*
X98656250Y-108775000D01*
G75*
G02*
X98875000Y-108993750I0J-218750D01*
G01*
X98875000Y-109431250D01*
G75*
G02*
X98656250Y-109650000I-218750J0D01*
G01*
G37*
G04 #@! TD*
G04 #@! TO.C,R6*
G36*
G01*
X124856250Y-104837500D02*
X124343750Y-104837500D01*
G75*
G02*
X124125000Y-104618750I0J218750D01*
G01*
X124125000Y-104181250D01*
G75*
G02*
X124343750Y-103962500I218750J0D01*
G01*
X124856250Y-103962500D01*
G75*
G02*
X125075000Y-104181250I0J-218750D01*
G01*
X125075000Y-104618750D01*
G75*
G02*
X124856250Y-104837500I-218750J0D01*
G01*
G37*
G36*
G01*
X124856250Y-106412500D02*
X124343750Y-106412500D01*
G75*
G02*
X124125000Y-106193750I0J218750D01*
G01*
X124125000Y-105756250D01*
G75*
G02*
X124343750Y-105537500I218750J0D01*
G01*
X124856250Y-105537500D01*
G75*
G02*
X125075000Y-105756250I0J-218750D01*
G01*
X125075000Y-106193750D01*
G75*
G02*
X124856250Y-106412500I-218750J0D01*
G01*
G37*
G04 #@! TD*
G04 #@! TO.C,R7*
G36*
G01*
X125256250Y-93037500D02*
X124743750Y-93037500D01*
G75*
G02*
X124525000Y-92818750I0J218750D01*
G01*
X124525000Y-92381250D01*
G75*
G02*
X124743750Y-92162500I218750J0D01*
G01*
X125256250Y-92162500D01*
G75*
G02*
X125475000Y-92381250I0J-218750D01*
G01*
X125475000Y-92818750D01*
G75*
G02*
X125256250Y-93037500I-218750J0D01*
G01*
G37*
G36*
G01*
X125256250Y-91462500D02*
X124743750Y-91462500D01*
G75*
G02*
X124525000Y-91243750I0J218750D01*
G01*
X124525000Y-90806250D01*
G75*
G02*
X124743750Y-90587500I218750J0D01*
G01*
X125256250Y-90587500D01*
G75*
G02*
X125475000Y-90806250I0J-218750D01*
G01*
X125475000Y-91243750D01*
G75*
G02*
X125256250Y-91462500I-218750J0D01*
G01*
G37*
G04 #@! TD*
G04 #@! TO.C,R8*
G36*
G01*
X124856250Y-113025000D02*
X124343750Y-113025000D01*
G75*
G02*
X124125000Y-112806250I0J218750D01*
G01*
X124125000Y-112368750D01*
G75*
G02*
X124343750Y-112150000I218750J0D01*
G01*
X124856250Y-112150000D01*
G75*
G02*
X125075000Y-112368750I0J-218750D01*
G01*
X125075000Y-112806250D01*
G75*
G02*
X124856250Y-113025000I-218750J0D01*
G01*
G37*
G36*
G01*
X124856250Y-111450000D02*
X124343750Y-111450000D01*
G75*
G02*
X124125000Y-111231250I0J218750D01*
G01*
X124125000Y-110793750D01*
G75*
G02*
X124343750Y-110575000I218750J0D01*
G01*
X124856250Y-110575000D01*
G75*
G02*
X125075000Y-110793750I0J-218750D01*
G01*
X125075000Y-111231250D01*
G75*
G02*
X124856250Y-111450000I-218750J0D01*
G01*
G37*
G04 #@! TD*
G04 #@! TO.C,R9*
G36*
G01*
X125256250Y-97637500D02*
X124743750Y-97637500D01*
G75*
G02*
X124525000Y-97418750I0J218750D01*
G01*
X124525000Y-96981250D01*
G75*
G02*
X124743750Y-96762500I218750J0D01*
G01*
X125256250Y-96762500D01*
G75*
G02*
X125475000Y-96981250I0J-218750D01*
G01*
X125475000Y-97418750D01*
G75*
G02*
X125256250Y-97637500I-218750J0D01*
G01*
G37*
G36*
G01*
X125256250Y-99212500D02*
X124743750Y-99212500D01*
G75*
G02*
X124525000Y-98993750I0J218750D01*
G01*
X124525000Y-98556250D01*
G75*
G02*
X124743750Y-98337500I218750J0D01*
G01*
X125256250Y-98337500D01*
G75*
G02*
X125475000Y-98556250I0J-218750D01*
G01*
X125475000Y-98993750D01*
G75*
G02*
X125256250Y-99212500I-218750J0D01*
G01*
G37*
G04 #@! TD*
D11*
G04 #@! TO.C,U1*
X108800000Y-109800000D03*
D12*
X108800000Y-116100000D03*
X111100000Y-116100000D03*
X106500000Y-116100000D03*
G04 #@! TD*
D13*
G04 #@! TO.C,U2*
X99600000Y-90200000D03*
X99600000Y-92200000D03*
X99600000Y-94200000D03*
X99600000Y-96200000D03*
X99600000Y-98200000D03*
X99600000Y-100200000D03*
X99600000Y-102200000D03*
X99600000Y-104200000D03*
D14*
X102200000Y-105700000D03*
X104200000Y-105700000D03*
X106200000Y-105700000D03*
X108200000Y-105700000D03*
X110200000Y-105700000D03*
X112200000Y-105700000D03*
D13*
X114800000Y-104200000D03*
X114800000Y-102200000D03*
X114800000Y-100200000D03*
X114800000Y-98200000D03*
X114800000Y-96200000D03*
X114800000Y-94200000D03*
X114800000Y-92200000D03*
X114800000Y-90200000D03*
G04 #@! TD*
D15*
G04 #@! TO.C,Q1*
X128800000Y-105200000D03*
X126800000Y-106150000D03*
X126800000Y-104250000D03*
G04 #@! TD*
G04 #@! TO.C,Q2*
X126800000Y-90850000D03*
X126800000Y-92750000D03*
X128800000Y-91800000D03*
G04 #@! TD*
G04 #@! TO.C,Q3*
X126800000Y-110850000D03*
X126800000Y-112750000D03*
X128800000Y-111800000D03*
G04 #@! TD*
G04 #@! TO.C,Q4*
X128800000Y-98000000D03*
X126800000Y-98950000D03*
X126800000Y-97050000D03*
G04 #@! TD*
G04 #@! TO.C,C1*
G36*
G01*
X115354860Y-69021201D02*
X115354860Y-68171199D01*
G75*
G02*
X115604859Y-67921200I249999J0D01*
G01*
X116504861Y-67921200D01*
G75*
G02*
X116754860Y-68171199I0J-249999D01*
G01*
X116754860Y-69021201D01*
G75*
G02*
X116504861Y-69271200I-249999J0D01*
G01*
X115604859Y-69271200D01*
G75*
G02*
X115354860Y-69021201I0J249999D01*
G01*
G37*
G36*
G01*
X112654860Y-69021201D02*
X112654860Y-68171199D01*
G75*
G02*
X112904859Y-67921200I249999J0D01*
G01*
X113804861Y-67921200D01*
G75*
G02*
X114054860Y-68171199I0J-249999D01*
G01*
X114054860Y-69021201D01*
G75*
G02*
X113804861Y-69271200I-249999J0D01*
G01*
X112904859Y-69271200D01*
G75*
G02*
X112654860Y-69021201I0J249999D01*
G01*
G37*
G04 #@! TD*
G04 #@! TO.C,C2*
G36*
G01*
X118628400Y-68312010D02*
X118628400Y-68824510D01*
G75*
G02*
X118409650Y-69043260I-218750J0D01*
G01*
X117972150Y-69043260D01*
G75*
G02*
X117753400Y-68824510I0J218750D01*
G01*
X117753400Y-68312010D01*
G75*
G02*
X117972150Y-68093260I218750J0D01*
G01*
X118409650Y-68093260D01*
G75*
G02*
X118628400Y-68312010I0J-218750D01*
G01*
G37*
G36*
G01*
X120203400Y-68312010D02*
X120203400Y-68824510D01*
G75*
G02*
X119984650Y-69043260I-218750J0D01*
G01*
X119547150Y-69043260D01*
G75*
G02*
X119328400Y-68824510I0J218750D01*
G01*
X119328400Y-68312010D01*
G75*
G02*
X119547150Y-68093260I218750J0D01*
G01*
X119984650Y-68093260D01*
G75*
G02*
X120203400Y-68312010I0J-218750D01*
G01*
G37*
G04 #@! TD*
G04 #@! TO.C,C3*
G36*
G01*
X116785340Y-57993419D02*
X116785340Y-58843421D01*
G75*
G02*
X116535341Y-59093420I-249999J0D01*
G01*
X115635339Y-59093420D01*
G75*
G02*
X115385340Y-58843421I0J249999D01*
G01*
X115385340Y-57993419D01*
G75*
G02*
X115635339Y-57743420I249999J0D01*
G01*
X116535341Y-57743420D01*
G75*
G02*
X116785340Y-57993419I0J-249999D01*
G01*
G37*
G36*
G01*
X114085340Y-57993419D02*
X114085340Y-58843421D01*
G75*
G02*
X113835341Y-59093420I-249999J0D01*
G01*
X112935339Y-59093420D01*
G75*
G02*
X112685340Y-58843421I0J249999D01*
G01*
X112685340Y-57993419D01*
G75*
G02*
X112935339Y-57743420I249999J0D01*
G01*
X113835341Y-57743420D01*
G75*
G02*
X114085340Y-57993419I0J-249999D01*
G01*
G37*
G04 #@! TD*
G04 #@! TO.C,C4*
G36*
G01*
X120562540Y-59078530D02*
X120562540Y-58566030D01*
G75*
G02*
X120781290Y-58347280I218750J0D01*
G01*
X121218790Y-58347280D01*
G75*
G02*
X121437540Y-58566030I0J-218750D01*
G01*
X121437540Y-59078530D01*
G75*
G02*
X121218790Y-59297280I-218750J0D01*
G01*
X120781290Y-59297280D01*
G75*
G02*
X120562540Y-59078530I0J218750D01*
G01*
G37*
G36*
G01*
X122137540Y-59078530D02*
X122137540Y-58566030D01*
G75*
G02*
X122356290Y-58347280I218750J0D01*
G01*
X122793790Y-58347280D01*
G75*
G02*
X123012540Y-58566030I0J-218750D01*
G01*
X123012540Y-59078530D01*
G75*
G02*
X122793790Y-59297280I-218750J0D01*
G01*
X122356290Y-59297280D01*
G75*
G02*
X122137540Y-59078530I0J218750D01*
G01*
G37*
G04 #@! TD*
G04 #@! TO.C,C5*
G36*
G01*
X120899590Y-70693940D02*
X121812090Y-70693940D01*
G75*
G02*
X122055840Y-70937690I0J-243750D01*
G01*
X122055840Y-71425190D01*
G75*
G02*
X121812090Y-71668940I-243750J0D01*
G01*
X120899590Y-71668940D01*
G75*
G02*
X120655840Y-71425190I0J243750D01*
G01*
X120655840Y-70937690D01*
G75*
G02*
X120899590Y-70693940I243750J0D01*
G01*
G37*
G36*
G01*
X120899590Y-72568940D02*
X121812090Y-72568940D01*
G75*
G02*
X122055840Y-72812690I0J-243750D01*
G01*
X122055840Y-73300190D01*
G75*
G02*
X121812090Y-73543940I-243750J0D01*
G01*
X120899590Y-73543940D01*
G75*
G02*
X120655840Y-73300190I0J243750D01*
G01*
X120655840Y-72812690D01*
G75*
G02*
X120899590Y-72568940I243750J0D01*
G01*
G37*
G04 #@! TD*
G04 #@! TO.C,C6*
G36*
G01*
X122443250Y-56833040D02*
X122955750Y-56833040D01*
G75*
G02*
X123174500Y-57051790I0J-218750D01*
G01*
X123174500Y-57489290D01*
G75*
G02*
X122955750Y-57708040I-218750J0D01*
G01*
X122443250Y-57708040D01*
G75*
G02*
X122224500Y-57489290I0J218750D01*
G01*
X122224500Y-57051790D01*
G75*
G02*
X122443250Y-56833040I218750J0D01*
G01*
G37*
G36*
G01*
X122443250Y-55258040D02*
X122955750Y-55258040D01*
G75*
G02*
X123174500Y-55476790I0J-218750D01*
G01*
X123174500Y-55914290D01*
G75*
G02*
X122955750Y-56133040I-218750J0D01*
G01*
X122443250Y-56133040D01*
G75*
G02*
X122224500Y-55914290I0J218750D01*
G01*
X122224500Y-55476790D01*
G75*
G02*
X122443250Y-55258040I218750J0D01*
G01*
G37*
G04 #@! TD*
G04 #@! TO.C,C7*
G36*
G01*
X120759230Y-55235080D02*
X121271730Y-55235080D01*
G75*
G02*
X121490480Y-55453830I0J-218750D01*
G01*
X121490480Y-55891330D01*
G75*
G02*
X121271730Y-56110080I-218750J0D01*
G01*
X120759230Y-56110080D01*
G75*
G02*
X120540480Y-55891330I0J218750D01*
G01*
X120540480Y-55453830D01*
G75*
G02*
X120759230Y-55235080I218750J0D01*
G01*
G37*
G36*
G01*
X120759230Y-56810080D02*
X121271730Y-56810080D01*
G75*
G02*
X121490480Y-57028830I0J-218750D01*
G01*
X121490480Y-57466330D01*
G75*
G02*
X121271730Y-57685080I-218750J0D01*
G01*
X120759230Y-57685080D01*
G75*
G02*
X120540480Y-57466330I0J218750D01*
G01*
X120540480Y-57028830D01*
G75*
G02*
X120759230Y-56810080I218750J0D01*
G01*
G37*
G04 #@! TD*
G04 #@! TO.C,D1*
G36*
G01*
X112737320Y-56621690D02*
X112737320Y-55709190D01*
G75*
G02*
X112981070Y-55465440I243750J0D01*
G01*
X113468570Y-55465440D01*
G75*
G02*
X113712320Y-55709190I0J-243750D01*
G01*
X113712320Y-56621690D01*
G75*
G02*
X113468570Y-56865440I-243750J0D01*
G01*
X112981070Y-56865440D01*
G75*
G02*
X112737320Y-56621690I0J243750D01*
G01*
G37*
G36*
G01*
X114612320Y-56621690D02*
X114612320Y-55709190D01*
G75*
G02*
X114856070Y-55465440I243750J0D01*
G01*
X115343570Y-55465440D01*
G75*
G02*
X115587320Y-55709190I0J-243750D01*
G01*
X115587320Y-56621690D01*
G75*
G02*
X115343570Y-56865440I-243750J0D01*
G01*
X114856070Y-56865440D01*
G75*
G02*
X114612320Y-56621690I0J243750D01*
G01*
G37*
G04 #@! TD*
G04 #@! TO.C,F1*
G36*
G01*
X105324560Y-58235201D02*
X105324560Y-55335199D01*
G75*
G02*
X105574559Y-55085200I249999J0D01*
G01*
X106199561Y-55085200D01*
G75*
G02*
X106449560Y-55335199I0J-249999D01*
G01*
X106449560Y-58235201D01*
G75*
G02*
X106199561Y-58485200I-249999J0D01*
G01*
X105574559Y-58485200D01*
G75*
G02*
X105324560Y-58235201I0J249999D01*
G01*
G37*
G36*
G01*
X109599560Y-58235201D02*
X109599560Y-55335199D01*
G75*
G02*
X109849559Y-55085200I249999J0D01*
G01*
X110474561Y-55085200D01*
G75*
G02*
X110724560Y-55335199I0J-249999D01*
G01*
X110724560Y-58235201D01*
G75*
G02*
X110474561Y-58485200I-249999J0D01*
G01*
X109849559Y-58485200D01*
G75*
G02*
X109599560Y-58235201I0J249999D01*
G01*
G37*
G04 #@! TD*
D16*
G04 #@! TO.C,J1*
X100687860Y-61471500D03*
X106687860Y-61471500D03*
X106687860Y-72471500D03*
X100687860Y-72471500D03*
G04 #@! TD*
D17*
G04 #@! TO.C,Q1*
X115102440Y-71128580D03*
X113202440Y-71128580D03*
X114152440Y-73128580D03*
G04 #@! TD*
G04 #@! TO.C,R1*
G36*
G01*
X118755700Y-55700910D02*
X118755700Y-56213410D01*
G75*
G02*
X118536950Y-56432160I-218750J0D01*
G01*
X118099450Y-56432160D01*
G75*
G02*
X117880700Y-56213410I0J218750D01*
G01*
X117880700Y-55700910D01*
G75*
G02*
X118099450Y-55482160I218750J0D01*
G01*
X118536950Y-55482160D01*
G75*
G02*
X118755700Y-55700910I0J-218750D01*
G01*
G37*
G36*
G01*
X117180700Y-55700910D02*
X117180700Y-56213410D01*
G75*
G02*
X116961950Y-56432160I-218750J0D01*
G01*
X116524450Y-56432160D01*
G75*
G02*
X116305700Y-56213410I0J218750D01*
G01*
X116305700Y-55700910D01*
G75*
G02*
X116524450Y-55482160I218750J0D01*
G01*
X116961950Y-55482160D01*
G75*
G02*
X117180700Y-55700910I0J-218750D01*
G01*
G37*
G04 #@! TD*
G04 #@! TO.C,R2*
G36*
G01*
X118920270Y-71089660D02*
X119432770Y-71089660D01*
G75*
G02*
X119651520Y-71308410I0J-218750D01*
G01*
X119651520Y-71745910D01*
G75*
G02*
X119432770Y-71964660I-218750J0D01*
G01*
X118920270Y-71964660D01*
G75*
G02*
X118701520Y-71745910I0J218750D01*
G01*
X118701520Y-71308410D01*
G75*
G02*
X118920270Y-71089660I218750J0D01*
G01*
G37*
G36*
G01*
X118920270Y-72664660D02*
X119432770Y-72664660D01*
G75*
G02*
X119651520Y-72883410I0J-218750D01*
G01*
X119651520Y-73320910D01*
G75*
G02*
X119432770Y-73539660I-218750J0D01*
G01*
X118920270Y-73539660D01*
G75*
G02*
X118701520Y-73320910I0J218750D01*
G01*
X118701520Y-72883410D01*
G75*
G02*
X118920270Y-72664660I218750J0D01*
G01*
G37*
G04 #@! TD*
G04 #@! TO.C,R3*
G36*
G01*
X116837470Y-72675020D02*
X117349970Y-72675020D01*
G75*
G02*
X117568720Y-72893770I0J-218750D01*
G01*
X117568720Y-73331270D01*
G75*
G02*
X117349970Y-73550020I-218750J0D01*
G01*
X116837470Y-73550020D01*
G75*
G02*
X116618720Y-73331270I0J218750D01*
G01*
X116618720Y-72893770D01*
G75*
G02*
X116837470Y-72675020I218750J0D01*
G01*
G37*
G36*
G01*
X116837470Y-71100020D02*
X117349970Y-71100020D01*
G75*
G02*
X117568720Y-71318770I0J-218750D01*
G01*
X117568720Y-71756270D01*
G75*
G02*
X117349970Y-71975020I-218750J0D01*
G01*
X116837470Y-71975020D01*
G75*
G02*
X116618720Y-71756270I0J218750D01*
G01*
X116618720Y-71318770D01*
G75*
G02*
X116837470Y-71100020I218750J0D01*
G01*
G37*
G04 #@! TD*
G04 #@! TO.C,R4*
G36*
G01*
X133009980Y-73818730D02*
X133009980Y-74331230D01*
G75*
G02*
X132791230Y-74549980I-218750J0D01*
G01*
X132353730Y-74549980D01*
G75*
G02*
X132134980Y-74331230I0J218750D01*
G01*
X132134980Y-73818730D01*
G75*
G02*
X132353730Y-73599980I218750J0D01*
G01*
X132791230Y-73599980D01*
G75*
G02*
X133009980Y-73818730I0J-218750D01*
G01*
G37*
G36*
G01*
X134584980Y-73818730D02*
X134584980Y-74331230D01*
G75*
G02*
X134366230Y-74549980I-218750J0D01*
G01*
X133928730Y-74549980D01*
G75*
G02*
X133709980Y-74331230I0J218750D01*
G01*
X133709980Y-73818730D01*
G75*
G02*
X133928730Y-73599980I218750J0D01*
G01*
X134366230Y-73599980D01*
G75*
G02*
X134584980Y-73818730I0J-218750D01*
G01*
G37*
G04 #@! TD*
G04 #@! TO.C,R5*
G36*
G01*
X128361780Y-73806030D02*
X128361780Y-74318530D01*
G75*
G02*
X128143030Y-74537280I-218750J0D01*
G01*
X127705530Y-74537280D01*
G75*
G02*
X127486780Y-74318530I0J218750D01*
G01*
X127486780Y-73806030D01*
G75*
G02*
X127705530Y-73587280I218750J0D01*
G01*
X128143030Y-73587280D01*
G75*
G02*
X128361780Y-73806030I0J-218750D01*
G01*
G37*
G36*
G01*
X126786780Y-73806030D02*
X126786780Y-74318530D01*
G75*
G02*
X126568030Y-74537280I-218750J0D01*
G01*
X126130530Y-74537280D01*
G75*
G02*
X125911780Y-74318530I0J218750D01*
G01*
X125911780Y-73806030D01*
G75*
G02*
X126130530Y-73587280I218750J0D01*
G01*
X126568030Y-73587280D01*
G75*
G02*
X126786780Y-73806030I0J-218750D01*
G01*
G37*
G04 #@! TD*
G04 #@! TO.C,R6*
G36*
G01*
X130605900Y-74326150D02*
X130605900Y-73813650D01*
G75*
G02*
X130824650Y-73594900I218750J0D01*
G01*
X131262150Y-73594900D01*
G75*
G02*
X131480900Y-73813650I0J-218750D01*
G01*
X131480900Y-74326150D01*
G75*
G02*
X131262150Y-74544900I-218750J0D01*
G01*
X130824650Y-74544900D01*
G75*
G02*
X130605900Y-74326150I0J218750D01*
G01*
G37*
G36*
G01*
X129030900Y-74326150D02*
X129030900Y-73813650D01*
G75*
G02*
X129249650Y-73594900I218750J0D01*
G01*
X129687150Y-73594900D01*
G75*
G02*
X129905900Y-73813650I0J-218750D01*
G01*
X129905900Y-74326150D01*
G75*
G02*
X129687150Y-74544900I-218750J0D01*
G01*
X129249650Y-74544900D01*
G75*
G02*
X129030900Y-74326150I0J218750D01*
G01*
G37*
G04 #@! TD*
G04 #@! TO.C,R7*
G36*
G01*
X122976070Y-67390320D02*
X122463570Y-67390320D01*
G75*
G02*
X122244820Y-67171570I0J218750D01*
G01*
X122244820Y-66734070D01*
G75*
G02*
X122463570Y-66515320I218750J0D01*
G01*
X122976070Y-66515320D01*
G75*
G02*
X123194820Y-66734070I0J-218750D01*
G01*
X123194820Y-67171570D01*
G75*
G02*
X122976070Y-67390320I-218750J0D01*
G01*
G37*
G36*
G01*
X122976070Y-65815320D02*
X122463570Y-65815320D01*
G75*
G02*
X122244820Y-65596570I0J218750D01*
G01*
X122244820Y-65159070D01*
G75*
G02*
X122463570Y-64940320I218750J0D01*
G01*
X122976070Y-64940320D01*
G75*
G02*
X123194820Y-65159070I0J-218750D01*
G01*
X123194820Y-65596570D01*
G75*
G02*
X122976070Y-65815320I-218750J0D01*
G01*
G37*
G04 #@! TD*
D18*
G04 #@! TO.C,U1*
X119957100Y-63422220D03*
D19*
X113657100Y-63422220D03*
X113657100Y-65722220D03*
X113657100Y-61122220D03*
G04 #@! TD*
D20*
G04 #@! TO.C,U2*
X140557740Y-56366100D03*
X138557740Y-56366100D03*
X136557740Y-56366100D03*
X134557740Y-56366100D03*
X132557740Y-56366100D03*
X130557740Y-56366100D03*
X128557740Y-56366100D03*
X126557740Y-56366100D03*
D21*
X125057740Y-58966100D03*
X125057740Y-60966100D03*
X125057740Y-62966100D03*
X125057740Y-64966100D03*
X125057740Y-66966100D03*
X125057740Y-68966100D03*
D20*
X126557740Y-71566100D03*
X128557740Y-71566100D03*
X130557740Y-71566100D03*
X132557740Y-71566100D03*
X134557740Y-71566100D03*
X136557740Y-71566100D03*
X138557740Y-71566100D03*
X140557740Y-71566100D03*
G04 #@! TD*
M02*
