G04 #@! TF.GenerationSoftware,KiCad,Pcbnew,(5.1.6)-1*
G04 #@! TF.CreationDate,2021-01-22T22:35:21+07:00*
G04 #@! TF.ProjectId,penelize-esp-led-strip,70656e65-6c69-47a6-952d-6573702d6c65,rev?*
G04 #@! TF.SameCoordinates,Original*
G04 #@! TF.FileFunction,Profile,NP*
%FSLAX46Y46*%
G04 Gerber Fmt 4.6, Leading zero omitted, Abs format (unit mm)*
G04 Created by KiCad (PCBNEW (5.1.6)-1) date 2021-01-22 22:35:21*
%MOMM*%
%LPD*%
G01*
G04 APERTURE LIST*
G04 #@! TA.AperFunction,Profile*
%ADD10C,0.150000*%
G04 #@! TD*
G04 APERTURE END LIST*
D10*
X89000000Y-80000000D02*
X104500000Y-80000000D01*
X104500000Y-77000000D02*
X100000000Y-77000000D01*
X148000000Y-80000000D02*
X112000000Y-80000000D01*
X112000000Y-77000000D02*
X148000000Y-77000000D01*
X112000000Y-80000000D02*
G75*
G02*
X112000000Y-77000000I0J1500000D01*
G01*
X104500000Y-77000000D02*
G75*
G02*
X104500000Y-80000000I0J-1500000D01*
G01*
X148000000Y-77000000D02*
G75*
G02*
X148000000Y-80000000I0J-1500000D01*
G01*
X155500000Y-80000000D02*
G75*
G02*
X155500000Y-77000000I0J1500000D01*
G01*
X169000000Y-139000000D02*
G75*
G02*
X167000000Y-141000000I-2000000J0D01*
G01*
X167000000Y-80000000D02*
G75*
G02*
X169000000Y-82000000I0J-2000000D01*
G01*
X89000000Y-141000000D02*
G75*
G02*
X84000000Y-136000000I0J5000000D01*
G01*
X84000000Y-85000000D02*
G75*
G02*
X89000000Y-80000000I5000000J0D01*
G01*
X155500000Y-80000000D02*
X167000000Y-80000000D01*
X84000000Y-136000000D02*
X84000000Y-85000000D01*
X167000000Y-141000000D02*
X89000000Y-141000000D01*
X169000000Y-82000000D02*
X169000000Y-139000000D01*
X100000000Y-77000000D02*
G75*
G02*
X97000000Y-74000000I0J3000000D01*
G01*
X97000000Y-55000000D02*
G75*
G02*
X100000000Y-52000000I3000000J0D01*
G01*
X161000000Y-52000000D02*
G75*
G02*
X164000000Y-55000000I0J-3000000D01*
G01*
X164000000Y-74000000D02*
G75*
G02*
X161000000Y-77000000I-3000000J0D01*
G01*
X100000000Y-52000000D02*
X161000000Y-52000000D01*
X97000000Y-74000000D02*
X97000000Y-55000000D01*
X161000000Y-77000000D02*
X155500000Y-77000000D01*
X164000000Y-55000000D02*
X164000000Y-74000000D01*
M02*
