G04 #@! TF.GenerationSoftware,KiCad,Pcbnew,(5.1.6)-1*
G04 #@! TF.CreationDate,2021-01-22T22:35:21+07:00*
G04 #@! TF.ProjectId,penelize-esp-led-strip,70656e65-6c69-47a6-952d-6573702d6c65,rev?*
G04 #@! TF.SameCoordinates,Original*
G04 #@! TF.FileFunction,Legend,Top*
G04 #@! TF.FilePolarity,Positive*
%FSLAX46Y46*%
G04 Gerber Fmt 4.6, Leading zero omitted, Abs format (unit mm)*
G04 Created by KiCad (PCBNEW (5.1.6)-1) date 2021-01-22 22:35:21*
%MOMM*%
%LPD*%
G01*
G04 APERTURE LIST*
%ADD10C,0.150000*%
%ADD11C,0.250000*%
%ADD12C,0.400000*%
%ADD13C,0.010000*%
%ADD14C,0.120000*%
G04 APERTURE END LIST*
D10*
X167452380Y-87738095D02*
X167452380Y-88214285D01*
X166452380Y-88214285D01*
X167452380Y-86976190D02*
X166928571Y-86976190D01*
X166833333Y-87023809D01*
X166785714Y-87119047D01*
X166785714Y-87309523D01*
X166833333Y-87404761D01*
X167404761Y-86976190D02*
X167452380Y-87071428D01*
X167452380Y-87309523D01*
X167404761Y-87404761D01*
X167309523Y-87452380D01*
X167214285Y-87452380D01*
X167119047Y-87404761D01*
X167071428Y-87309523D01*
X167071428Y-87071428D01*
X167023809Y-86976190D01*
X167452380Y-86500000D02*
X166785714Y-86500000D01*
X166880952Y-86500000D02*
X166833333Y-86452380D01*
X166785714Y-86357142D01*
X166785714Y-86214285D01*
X166833333Y-86119047D01*
X166928571Y-86071428D01*
X167452380Y-86071428D01*
X166928571Y-86071428D02*
X166833333Y-86023809D01*
X166785714Y-85928571D01*
X166785714Y-85785714D01*
X166833333Y-85690476D01*
X166928571Y-85642857D01*
X167452380Y-85642857D01*
X166785714Y-85166666D02*
X167785714Y-85166666D01*
X166833333Y-85166666D02*
X166785714Y-85071428D01*
X166785714Y-84880952D01*
X166833333Y-84785714D01*
X166880952Y-84738095D01*
X166976190Y-84690476D01*
X167261904Y-84690476D01*
X167357142Y-84738095D01*
X167404761Y-84785714D01*
X167452380Y-84880952D01*
X167452380Y-85071428D01*
X167404761Y-85166666D01*
X166785714Y-83833333D02*
X167452380Y-83833333D01*
X166404761Y-84071428D02*
X167119047Y-84309523D01*
X167119047Y-83690476D01*
X167452380Y-99738095D02*
X167452380Y-100214285D01*
X166452380Y-100214285D01*
X167452380Y-98976190D02*
X166928571Y-98976190D01*
X166833333Y-99023809D01*
X166785714Y-99119047D01*
X166785714Y-99309523D01*
X166833333Y-99404761D01*
X167404761Y-98976190D02*
X167452380Y-99071428D01*
X167452380Y-99309523D01*
X167404761Y-99404761D01*
X167309523Y-99452380D01*
X167214285Y-99452380D01*
X167119047Y-99404761D01*
X167071428Y-99309523D01*
X167071428Y-99071428D01*
X167023809Y-98976190D01*
X167452380Y-98500000D02*
X166785714Y-98500000D01*
X166880952Y-98500000D02*
X166833333Y-98452380D01*
X166785714Y-98357142D01*
X166785714Y-98214285D01*
X166833333Y-98119047D01*
X166928571Y-98071428D01*
X167452380Y-98071428D01*
X166928571Y-98071428D02*
X166833333Y-98023809D01*
X166785714Y-97928571D01*
X166785714Y-97785714D01*
X166833333Y-97690476D01*
X166928571Y-97642857D01*
X167452380Y-97642857D01*
X166785714Y-97166666D02*
X167785714Y-97166666D01*
X166833333Y-97166666D02*
X166785714Y-97071428D01*
X166785714Y-96880952D01*
X166833333Y-96785714D01*
X166880952Y-96738095D01*
X166976190Y-96690476D01*
X167261904Y-96690476D01*
X167357142Y-96738095D01*
X167404761Y-96785714D01*
X167452380Y-96880952D01*
X167452380Y-97071428D01*
X167404761Y-97166666D01*
X166452380Y-96357142D02*
X166452380Y-95738095D01*
X166833333Y-96071428D01*
X166833333Y-95928571D01*
X166880952Y-95833333D01*
X166928571Y-95785714D01*
X167023809Y-95738095D01*
X167261904Y-95738095D01*
X167357142Y-95785714D01*
X167404761Y-95833333D01*
X167452380Y-95928571D01*
X167452380Y-96214285D01*
X167404761Y-96309523D01*
X167357142Y-96357142D01*
X167452380Y-111738095D02*
X167452380Y-112214285D01*
X166452380Y-112214285D01*
X167452380Y-110976190D02*
X166928571Y-110976190D01*
X166833333Y-111023809D01*
X166785714Y-111119047D01*
X166785714Y-111309523D01*
X166833333Y-111404761D01*
X167404761Y-110976190D02*
X167452380Y-111071428D01*
X167452380Y-111309523D01*
X167404761Y-111404761D01*
X167309523Y-111452380D01*
X167214285Y-111452380D01*
X167119047Y-111404761D01*
X167071428Y-111309523D01*
X167071428Y-111071428D01*
X167023809Y-110976190D01*
X167452380Y-110500000D02*
X166785714Y-110500000D01*
X166880952Y-110500000D02*
X166833333Y-110452380D01*
X166785714Y-110357142D01*
X166785714Y-110214285D01*
X166833333Y-110119047D01*
X166928571Y-110071428D01*
X167452380Y-110071428D01*
X166928571Y-110071428D02*
X166833333Y-110023809D01*
X166785714Y-109928571D01*
X166785714Y-109785714D01*
X166833333Y-109690476D01*
X166928571Y-109642857D01*
X167452380Y-109642857D01*
X166785714Y-109166666D02*
X167785714Y-109166666D01*
X166833333Y-109166666D02*
X166785714Y-109071428D01*
X166785714Y-108880952D01*
X166833333Y-108785714D01*
X166880952Y-108738095D01*
X166976190Y-108690476D01*
X167261904Y-108690476D01*
X167357142Y-108738095D01*
X167404761Y-108785714D01*
X167452380Y-108880952D01*
X167452380Y-109071428D01*
X167404761Y-109166666D01*
X166547619Y-108309523D02*
X166500000Y-108261904D01*
X166452380Y-108166666D01*
X166452380Y-107928571D01*
X166500000Y-107833333D01*
X166547619Y-107785714D01*
X166642857Y-107738095D01*
X166738095Y-107738095D01*
X166880952Y-107785714D01*
X167452380Y-108357142D01*
X167452380Y-107738095D01*
X167452380Y-123738095D02*
X167452380Y-124214285D01*
X166452380Y-124214285D01*
X167452380Y-122976190D02*
X166928571Y-122976190D01*
X166833333Y-123023809D01*
X166785714Y-123119047D01*
X166785714Y-123309523D01*
X166833333Y-123404761D01*
X167404761Y-122976190D02*
X167452380Y-123071428D01*
X167452380Y-123309523D01*
X167404761Y-123404761D01*
X167309523Y-123452380D01*
X167214285Y-123452380D01*
X167119047Y-123404761D01*
X167071428Y-123309523D01*
X167071428Y-123071428D01*
X167023809Y-122976190D01*
X167452380Y-122500000D02*
X166785714Y-122500000D01*
X166880952Y-122500000D02*
X166833333Y-122452380D01*
X166785714Y-122357142D01*
X166785714Y-122214285D01*
X166833333Y-122119047D01*
X166928571Y-122071428D01*
X167452380Y-122071428D01*
X166928571Y-122071428D02*
X166833333Y-122023809D01*
X166785714Y-121928571D01*
X166785714Y-121785714D01*
X166833333Y-121690476D01*
X166928571Y-121642857D01*
X167452380Y-121642857D01*
X166785714Y-121166666D02*
X167785714Y-121166666D01*
X166833333Y-121166666D02*
X166785714Y-121071428D01*
X166785714Y-120880952D01*
X166833333Y-120785714D01*
X166880952Y-120738095D01*
X166976190Y-120690476D01*
X167261904Y-120690476D01*
X167357142Y-120738095D01*
X167404761Y-120785714D01*
X167452380Y-120880952D01*
X167452380Y-121071428D01*
X167404761Y-121166666D01*
X167452380Y-119738095D02*
X167452380Y-120309523D01*
X167452380Y-120023809D02*
X166452380Y-120023809D01*
X166595238Y-120119047D01*
X166690476Y-120214285D01*
X166738095Y-120309523D01*
X167404761Y-137285714D02*
X167452380Y-137142857D01*
X167452380Y-136904761D01*
X167404761Y-136809523D01*
X167357142Y-136761904D01*
X167261904Y-136714285D01*
X167166666Y-136714285D01*
X167071428Y-136761904D01*
X167023809Y-136809523D01*
X166976190Y-136904761D01*
X166928571Y-137095238D01*
X166880952Y-137190476D01*
X166833333Y-137238095D01*
X166738095Y-137285714D01*
X166642857Y-137285714D01*
X166547619Y-137238095D01*
X166500000Y-137190476D01*
X166452380Y-137095238D01*
X166452380Y-136857142D01*
X166500000Y-136714285D01*
X166785714Y-135857142D02*
X167452380Y-135857142D01*
X166785714Y-136285714D02*
X167309523Y-136285714D01*
X167404761Y-136238095D01*
X167452380Y-136142857D01*
X167452380Y-136000000D01*
X167404761Y-135904761D01*
X167357142Y-135857142D01*
X166785714Y-135380952D02*
X167785714Y-135380952D01*
X166833333Y-135380952D02*
X166785714Y-135285714D01*
X166785714Y-135095238D01*
X166833333Y-135000000D01*
X166880952Y-134952380D01*
X166976190Y-134904761D01*
X167261904Y-134904761D01*
X167357142Y-134952380D01*
X167404761Y-135000000D01*
X167452380Y-135095238D01*
X167452380Y-135285714D01*
X167404761Y-135380952D01*
X166785714Y-134476190D02*
X167785714Y-134476190D01*
X166833333Y-134476190D02*
X166785714Y-134380952D01*
X166785714Y-134190476D01*
X166833333Y-134095238D01*
X166880952Y-134047619D01*
X166976190Y-134000000D01*
X167261904Y-134000000D01*
X167357142Y-134047619D01*
X167404761Y-134095238D01*
X167452380Y-134190476D01*
X167452380Y-134380952D01*
X167404761Y-134476190D01*
X167452380Y-133428571D02*
X167404761Y-133523809D01*
X167309523Y-133571428D01*
X166452380Y-133571428D01*
X166785714Y-133142857D02*
X167452380Y-132904761D01*
X166785714Y-132666666D02*
X167452380Y-132904761D01*
X167690476Y-133000000D01*
X167738095Y-133047619D01*
X167785714Y-133142857D01*
D11*
X86714285Y-107690476D02*
X86047619Y-107880952D01*
X86523809Y-108071428D01*
X86047619Y-108261904D01*
X86714285Y-108452380D01*
X86714285Y-108738095D02*
X86047619Y-108928571D01*
X86523809Y-109119047D01*
X86047619Y-109309523D01*
X86714285Y-109500000D01*
X86714285Y-109785714D02*
X86047619Y-109976190D01*
X86523809Y-110166666D01*
X86047619Y-110357142D01*
X86714285Y-110547619D01*
X86142857Y-110928571D02*
X86095238Y-110976190D01*
X86047619Y-110928571D01*
X86095238Y-110880952D01*
X86142857Y-110928571D01*
X86047619Y-110928571D01*
X86095238Y-111785714D02*
X86047619Y-111690476D01*
X86047619Y-111500000D01*
X86095238Y-111404761D01*
X86190476Y-111357142D01*
X86571428Y-111357142D01*
X86666666Y-111404761D01*
X86714285Y-111500000D01*
X86714285Y-111690476D01*
X86666666Y-111785714D01*
X86571428Y-111833333D01*
X86476190Y-111833333D01*
X86380952Y-111357142D01*
X86714285Y-112119047D02*
X86714285Y-112500000D01*
X87047619Y-112261904D02*
X86190476Y-112261904D01*
X86095238Y-112309523D01*
X86047619Y-112404761D01*
X86047619Y-112500000D01*
X86047619Y-112833333D02*
X86714285Y-112833333D01*
X86523809Y-112833333D02*
X86619047Y-112880952D01*
X86666666Y-112928571D01*
X86714285Y-113023809D01*
X86714285Y-113119047D01*
X86047619Y-113595238D02*
X86095238Y-113500000D01*
X86142857Y-113452380D01*
X86238095Y-113404761D01*
X86523809Y-113404761D01*
X86619047Y-113452380D01*
X86666666Y-113500000D01*
X86714285Y-113595238D01*
X86714285Y-113738095D01*
X86666666Y-113833333D01*
X86619047Y-113880952D01*
X86523809Y-113928571D01*
X86238095Y-113928571D01*
X86142857Y-113880952D01*
X86095238Y-113833333D01*
X86047619Y-113738095D01*
X86047619Y-113595238D01*
X86714285Y-114357142D02*
X86047619Y-114357142D01*
X86619047Y-114357142D02*
X86666666Y-114404761D01*
X86714285Y-114500000D01*
X86714285Y-114642857D01*
X86666666Y-114738095D01*
X86571428Y-114785714D01*
X86047619Y-114785714D01*
X86047619Y-115261904D02*
X86714285Y-115261904D01*
X87047619Y-115261904D02*
X87000000Y-115214285D01*
X86952380Y-115261904D01*
X87000000Y-115309523D01*
X87047619Y-115261904D01*
X86952380Y-115261904D01*
X86095238Y-116166666D02*
X86047619Y-116071428D01*
X86047619Y-115880952D01*
X86095238Y-115785714D01*
X86142857Y-115738095D01*
X86238095Y-115690476D01*
X86523809Y-115690476D01*
X86619047Y-115738095D01*
X86666666Y-115785714D01*
X86714285Y-115880952D01*
X86714285Y-116071428D01*
X86666666Y-116166666D01*
X86095238Y-116547619D02*
X86047619Y-116642857D01*
X86047619Y-116833333D01*
X86095238Y-116928571D01*
X86190476Y-116976190D01*
X86238095Y-116976190D01*
X86333333Y-116928571D01*
X86380952Y-116833333D01*
X86380952Y-116690476D01*
X86428571Y-116595238D01*
X86523809Y-116547619D01*
X86571428Y-116547619D01*
X86666666Y-116595238D01*
X86714285Y-116690476D01*
X86714285Y-116833333D01*
X86666666Y-116928571D01*
X86047619Y-117404761D02*
X87047619Y-117404761D01*
X86428571Y-117500000D02*
X86047619Y-117785714D01*
X86714285Y-117785714D02*
X86333333Y-117404761D01*
X86047619Y-118214285D02*
X87047619Y-118214285D01*
X86047619Y-118642857D02*
X86571428Y-118642857D01*
X86666666Y-118595238D01*
X86714285Y-118500000D01*
X86714285Y-118357142D01*
X86666666Y-118261904D01*
X86619047Y-118214285D01*
X86142857Y-119119047D02*
X86095238Y-119166666D01*
X86047619Y-119119047D01*
X86095238Y-119071428D01*
X86142857Y-119119047D01*
X86047619Y-119119047D01*
X86095238Y-120023809D02*
X86047619Y-119928571D01*
X86047619Y-119738095D01*
X86095238Y-119642857D01*
X86142857Y-119595238D01*
X86238095Y-119547619D01*
X86523809Y-119547619D01*
X86619047Y-119595238D01*
X86666666Y-119642857D01*
X86714285Y-119738095D01*
X86714285Y-119928571D01*
X86666666Y-120023809D01*
X86047619Y-120595238D02*
X86095238Y-120500000D01*
X86142857Y-120452380D01*
X86238095Y-120404761D01*
X86523809Y-120404761D01*
X86619047Y-120452380D01*
X86666666Y-120500000D01*
X86714285Y-120595238D01*
X86714285Y-120738095D01*
X86666666Y-120833333D01*
X86619047Y-120880952D01*
X86523809Y-120928571D01*
X86238095Y-120928571D01*
X86142857Y-120880952D01*
X86095238Y-120833333D01*
X86047619Y-120738095D01*
X86047619Y-120595238D01*
X86047619Y-121357142D02*
X86714285Y-121357142D01*
X86619047Y-121357142D02*
X86666666Y-121404761D01*
X86714285Y-121500000D01*
X86714285Y-121642857D01*
X86666666Y-121738095D01*
X86571428Y-121785714D01*
X86047619Y-121785714D01*
X86571428Y-121785714D02*
X86666666Y-121833333D01*
X86714285Y-121928571D01*
X86714285Y-122071428D01*
X86666666Y-122166666D01*
X86571428Y-122214285D01*
X86047619Y-122214285D01*
D12*
X89352380Y-101466666D02*
X89276190Y-101695238D01*
X89276190Y-102076190D01*
X89352380Y-102228571D01*
X89428571Y-102304761D01*
X89580952Y-102380952D01*
X89733333Y-102380952D01*
X89885714Y-102304761D01*
X89961904Y-102228571D01*
X90038095Y-102076190D01*
X90114285Y-101771428D01*
X90190476Y-101619047D01*
X90266666Y-101542857D01*
X90419047Y-101466666D01*
X90571428Y-101466666D01*
X90723809Y-101542857D01*
X90800000Y-101619047D01*
X90876190Y-101771428D01*
X90876190Y-102152380D01*
X90800000Y-102380952D01*
X89276190Y-103066666D02*
X90876190Y-103066666D01*
X89733333Y-103600000D01*
X90876190Y-104133333D01*
X89276190Y-104133333D01*
X89733333Y-104819047D02*
X89733333Y-105580952D01*
X89276190Y-104666666D02*
X90876190Y-105200000D01*
X89276190Y-105733333D01*
X89276190Y-107180952D02*
X90038095Y-106647619D01*
X89276190Y-106266666D02*
X90876190Y-106266666D01*
X90876190Y-106876190D01*
X90800000Y-107028571D01*
X90723809Y-107104761D01*
X90571428Y-107180952D01*
X90342857Y-107180952D01*
X90190476Y-107104761D01*
X90114285Y-107028571D01*
X90038095Y-106876190D01*
X90038095Y-106266666D01*
X90876190Y-107638095D02*
X90876190Y-108552380D01*
X89276190Y-108095238D02*
X90876190Y-108095238D01*
X89276190Y-110304761D02*
X90876190Y-110304761D01*
X90114285Y-110304761D02*
X90114285Y-111219047D01*
X89276190Y-111219047D02*
X90876190Y-111219047D01*
X90876190Y-112285714D02*
X90876190Y-112590476D01*
X90800000Y-112742857D01*
X90647619Y-112895238D01*
X90342857Y-112971428D01*
X89809523Y-112971428D01*
X89504761Y-112895238D01*
X89352380Y-112742857D01*
X89276190Y-112590476D01*
X89276190Y-112285714D01*
X89352380Y-112133333D01*
X89504761Y-111980952D01*
X89809523Y-111904761D01*
X90342857Y-111904761D01*
X90647619Y-111980952D01*
X90800000Y-112133333D01*
X90876190Y-112285714D01*
X89276190Y-113657142D02*
X90876190Y-113657142D01*
X89733333Y-114190476D01*
X90876190Y-114723809D01*
X89276190Y-114723809D01*
X90114285Y-115485714D02*
X90114285Y-116019047D01*
X89276190Y-116247619D02*
X89276190Y-115485714D01*
X90876190Y-115485714D01*
X90876190Y-116247619D01*
X90114285Y-118152380D02*
X90114285Y-118685714D01*
X89276190Y-118914285D02*
X89276190Y-118152380D01*
X90876190Y-118152380D01*
X90876190Y-118914285D01*
X89352380Y-119523809D02*
X89276190Y-119752380D01*
X89276190Y-120133333D01*
X89352380Y-120285714D01*
X89428571Y-120361904D01*
X89580952Y-120438095D01*
X89733333Y-120438095D01*
X89885714Y-120361904D01*
X89961904Y-120285714D01*
X90038095Y-120133333D01*
X90114285Y-119828571D01*
X90190476Y-119676190D01*
X90266666Y-119600000D01*
X90419047Y-119523809D01*
X90571428Y-119523809D01*
X90723809Y-119600000D01*
X90800000Y-119676190D01*
X90876190Y-119828571D01*
X90876190Y-120209523D01*
X90800000Y-120438095D01*
X89276190Y-121123809D02*
X90876190Y-121123809D01*
X90876190Y-121733333D01*
X90800000Y-121885714D01*
X90723809Y-121961904D01*
X90571428Y-122038095D01*
X90342857Y-122038095D01*
X90190476Y-121961904D01*
X90114285Y-121885714D01*
X90038095Y-121733333D01*
X90038095Y-121123809D01*
X89276190Y-123561904D02*
X89276190Y-122647619D01*
X89276190Y-123104761D02*
X90876190Y-123104761D01*
X90647619Y-122952380D01*
X90495238Y-122800000D01*
X90419047Y-122647619D01*
X90723809Y-124171428D02*
X90800000Y-124247619D01*
X90876190Y-124400000D01*
X90876190Y-124780952D01*
X90800000Y-124933333D01*
X90723809Y-125009523D01*
X90571428Y-125085714D01*
X90419047Y-125085714D01*
X90190476Y-125009523D01*
X89276190Y-124095238D01*
X89276190Y-125085714D01*
X90114285Y-125771428D02*
X90114285Y-126304761D01*
X89276190Y-126533333D02*
X89276190Y-125771428D01*
X90876190Y-125771428D01*
X90876190Y-126533333D01*
D10*
X150811904Y-68400000D02*
X150716666Y-68352380D01*
X150573809Y-68352380D01*
X150430952Y-68400000D01*
X150335714Y-68495238D01*
X150288095Y-68590476D01*
X150240476Y-68780952D01*
X150240476Y-68923809D01*
X150288095Y-69114285D01*
X150335714Y-69209523D01*
X150430952Y-69304761D01*
X150573809Y-69352380D01*
X150669047Y-69352380D01*
X150811904Y-69304761D01*
X150859523Y-69257142D01*
X150859523Y-68923809D01*
X150669047Y-68923809D01*
X150097619Y-64878571D02*
X150240476Y-64926190D01*
X150288095Y-64973809D01*
X150335714Y-65069047D01*
X150335714Y-65211904D01*
X150288095Y-65307142D01*
X150240476Y-65354761D01*
X150145238Y-65402380D01*
X149764285Y-65402380D01*
X149764285Y-64402380D01*
X150097619Y-64402380D01*
X150192857Y-64450000D01*
X150240476Y-64497619D01*
X150288095Y-64592857D01*
X150288095Y-64688095D01*
X150240476Y-64783333D01*
X150192857Y-64830952D01*
X150097619Y-64878571D01*
X149764285Y-64878571D01*
X150954761Y-64402380D02*
X151145238Y-64402380D01*
X151240476Y-64450000D01*
X151335714Y-64545238D01*
X151383333Y-64735714D01*
X151383333Y-65069047D01*
X151335714Y-65259523D01*
X151240476Y-65354761D01*
X151145238Y-65402380D01*
X150954761Y-65402380D01*
X150859523Y-65354761D01*
X150764285Y-65259523D01*
X150716666Y-65069047D01*
X150716666Y-64735714D01*
X150764285Y-64545238D01*
X150859523Y-64450000D01*
X150954761Y-64402380D01*
X149764285Y-61252380D02*
X149764285Y-60252380D01*
X150002380Y-60252380D01*
X150145238Y-60300000D01*
X150240476Y-60395238D01*
X150288095Y-60490476D01*
X150335714Y-60680952D01*
X150335714Y-60823809D01*
X150288095Y-61014285D01*
X150240476Y-61109523D01*
X150145238Y-61204761D01*
X150002380Y-61252380D01*
X149764285Y-61252380D01*
X150954761Y-60252380D02*
X151145238Y-60252380D01*
X151240476Y-60300000D01*
X151335714Y-60395238D01*
X151383333Y-60585714D01*
X151383333Y-60919047D01*
X151335714Y-61109523D01*
X151240476Y-61204761D01*
X151145238Y-61252380D01*
X150954761Y-61252380D01*
X150859523Y-61204761D01*
X150764285Y-61109523D01*
X150716666Y-60919047D01*
X150716666Y-60585714D01*
X150764285Y-60395238D01*
X150859523Y-60300000D01*
X150954761Y-60252380D01*
X150259523Y-56252380D02*
X149783333Y-56252380D01*
X149735714Y-56728571D01*
X149783333Y-56680952D01*
X149878571Y-56633333D01*
X150116666Y-56633333D01*
X150211904Y-56680952D01*
X150259523Y-56728571D01*
X150307142Y-56823809D01*
X150307142Y-57061904D01*
X150259523Y-57157142D01*
X150211904Y-57204761D01*
X150116666Y-57252380D01*
X149878571Y-57252380D01*
X149783333Y-57204761D01*
X149735714Y-57157142D01*
X150592857Y-56252380D02*
X150926190Y-57252380D01*
X151259523Y-56252380D01*
D13*
G04 #@! TO.C,G\u002A\u002A\u002A*
G36*
X92810000Y-97016000D02*
G01*
X92810000Y-96646545D01*
X93364182Y-96646545D01*
X93364182Y-95544860D01*
X93208318Y-95530139D01*
X93113069Y-95523493D01*
X92992372Y-95518366D01*
X92866956Y-95515554D01*
X92819995Y-95515255D01*
X92587535Y-95515091D01*
X92545812Y-95336136D01*
X92445319Y-94978059D01*
X92319310Y-94657237D01*
X92167116Y-94371997D01*
X92147718Y-94341108D01*
X92105216Y-94270594D01*
X92086764Y-94225856D01*
X92088927Y-94195553D01*
X92098779Y-94179472D01*
X92123838Y-94148285D01*
X92172028Y-94089120D01*
X92237098Y-94009626D01*
X92312794Y-93917451D01*
X92337700Y-93887182D01*
X92414045Y-93793970D01*
X92480244Y-93712262D01*
X92530513Y-93649262D01*
X92559070Y-93612173D01*
X92562807Y-93606743D01*
X92551449Y-93583030D01*
X92508742Y-93531253D01*
X92437513Y-93454409D01*
X92340590Y-93355495D01*
X92220798Y-93237509D01*
X92152232Y-93171363D01*
X91725645Y-92762421D01*
X91142247Y-93282127D01*
X90804260Y-93107396D01*
X90500591Y-92961765D01*
X90214668Y-92847586D01*
X89952500Y-92767203D01*
X89854364Y-92742402D01*
X89854364Y-91843636D01*
X88562270Y-91843636D01*
X88555999Y-92286065D01*
X88549727Y-92728493D01*
X88332562Y-92783099D01*
X88043374Y-92865354D01*
X87765598Y-92962789D01*
X87510098Y-93071134D01*
X87287737Y-93186117D01*
X87248504Y-93209349D01*
X87176196Y-93252331D01*
X87120237Y-93283917D01*
X87091312Y-93298106D01*
X87089987Y-93298364D01*
X87068992Y-93284650D01*
X87018044Y-93246599D01*
X86943157Y-93188839D01*
X86850345Y-93116002D01*
X86760182Y-93044364D01*
X86655755Y-92962007D01*
X86562915Y-92890792D01*
X86487958Y-92835387D01*
X86437179Y-92800461D01*
X86417708Y-92790364D01*
X86394897Y-92805848D01*
X86345139Y-92848721D01*
X86273967Y-92913608D01*
X86186914Y-92995137D01*
X86089510Y-93087935D01*
X85987288Y-93186629D01*
X85885780Y-93285846D01*
X85790517Y-93380214D01*
X85707032Y-93464358D01*
X85640857Y-93532908D01*
X85597523Y-93580489D01*
X85582546Y-93601515D01*
X85597664Y-93624259D01*
X85639596Y-93674524D01*
X85703207Y-93746481D01*
X85783361Y-93834302D01*
X85859636Y-93915982D01*
X85949623Y-94012241D01*
X86027405Y-94097055D01*
X86087864Y-94164710D01*
X86125881Y-94209491D01*
X86136727Y-94225272D01*
X86125699Y-94250476D01*
X86095944Y-94306172D01*
X86052457Y-94383227D01*
X86016858Y-94444412D01*
X85906522Y-94651350D01*
X85803687Y-94880702D01*
X85716135Y-95113570D01*
X85651647Y-95331057D01*
X85651468Y-95331782D01*
X85600468Y-95538182D01*
X84682000Y-95538182D01*
X84682000Y-96646545D01*
X85605636Y-96646545D01*
X85605636Y-97016000D01*
X84312546Y-97016000D01*
X84312546Y-95168727D01*
X84814773Y-95168179D01*
X85317000Y-95167630D01*
X85381421Y-94965756D01*
X85420379Y-94855423D01*
X85472289Y-94724330D01*
X85528919Y-94592757D01*
X85560375Y-94524859D01*
X85605755Y-94428871D01*
X85642634Y-94348421D01*
X85666998Y-94292432D01*
X85674909Y-94270241D01*
X85659856Y-94249347D01*
X85617889Y-94200237D01*
X85553796Y-94128274D01*
X85472364Y-94038825D01*
X85378382Y-93937253D01*
X85363512Y-93921317D01*
X85251757Y-93800321D01*
X85169999Y-93708329D01*
X85115455Y-93641818D01*
X85085342Y-93597262D01*
X85076875Y-93571137D01*
X85080648Y-93563159D01*
X85102993Y-93541855D01*
X85154449Y-93491775D01*
X85231270Y-93416598D01*
X85329710Y-93320000D01*
X85446024Y-93205657D01*
X85576464Y-93077246D01*
X85717284Y-92938445D01*
X85746226Y-92909898D01*
X86383270Y-92281468D01*
X87110886Y-92854456D01*
X87322306Y-92756235D01*
X87559550Y-92653920D01*
X87818892Y-92555801D01*
X88059046Y-92476247D01*
X88191818Y-92435566D01*
X88191818Y-91474182D01*
X90223818Y-91474182D01*
X90223818Y-92460771D01*
X90430005Y-92534526D01*
X90545170Y-92579116D01*
X90679000Y-92636070D01*
X90809493Y-92695865D01*
X90861686Y-92721373D01*
X91087182Y-92834466D01*
X91203909Y-92734439D01*
X91270000Y-92677198D01*
X91357860Y-92600267D01*
X91454844Y-92514752D01*
X91528437Y-92449460D01*
X91736238Y-92264509D01*
X91817074Y-92329636D01*
X91851999Y-92360956D01*
X91915119Y-92420857D01*
X92002119Y-92505115D01*
X92108686Y-92609508D01*
X92230507Y-92729812D01*
X92363268Y-92861805D01*
X92485495Y-92984046D01*
X92639641Y-93138878D01*
X92763926Y-93264518D01*
X92861274Y-93364303D01*
X92934605Y-93441569D01*
X92986841Y-93499653D01*
X93020905Y-93541892D01*
X93039718Y-93571622D01*
X93046202Y-93592180D01*
X93043279Y-93606903D01*
X93037824Y-93614801D01*
X92922594Y-93751249D01*
X92815508Y-93879778D01*
X92720310Y-93995750D01*
X92640741Y-94094525D01*
X92580544Y-94171466D01*
X92543461Y-94221935D01*
X92532909Y-94240580D01*
X92542209Y-94269290D01*
X92567311Y-94329817D01*
X92604020Y-94412348D01*
X92634715Y-94478681D01*
X92689888Y-94603814D01*
X92747312Y-94746526D01*
X92796913Y-94881456D01*
X92809265Y-94918165D01*
X92846049Y-95025021D01*
X92875489Y-95094729D01*
X92901560Y-95134912D01*
X92928243Y-95153193D01*
X92932596Y-95154531D01*
X92972261Y-95159162D01*
X93048999Y-95163154D01*
X93153700Y-95166210D01*
X93277255Y-95168032D01*
X93358409Y-95168412D01*
X93733636Y-95168727D01*
X93733636Y-97016000D01*
X92810000Y-97016000D01*
G37*
X92810000Y-97016000D02*
X92810000Y-96646545D01*
X93364182Y-96646545D01*
X93364182Y-95544860D01*
X93208318Y-95530139D01*
X93113069Y-95523493D01*
X92992372Y-95518366D01*
X92866956Y-95515554D01*
X92819995Y-95515255D01*
X92587535Y-95515091D01*
X92545812Y-95336136D01*
X92445319Y-94978059D01*
X92319310Y-94657237D01*
X92167116Y-94371997D01*
X92147718Y-94341108D01*
X92105216Y-94270594D01*
X92086764Y-94225856D01*
X92088927Y-94195553D01*
X92098779Y-94179472D01*
X92123838Y-94148285D01*
X92172028Y-94089120D01*
X92237098Y-94009626D01*
X92312794Y-93917451D01*
X92337700Y-93887182D01*
X92414045Y-93793970D01*
X92480244Y-93712262D01*
X92530513Y-93649262D01*
X92559070Y-93612173D01*
X92562807Y-93606743D01*
X92551449Y-93583030D01*
X92508742Y-93531253D01*
X92437513Y-93454409D01*
X92340590Y-93355495D01*
X92220798Y-93237509D01*
X92152232Y-93171363D01*
X91725645Y-92762421D01*
X91142247Y-93282127D01*
X90804260Y-93107396D01*
X90500591Y-92961765D01*
X90214668Y-92847586D01*
X89952500Y-92767203D01*
X89854364Y-92742402D01*
X89854364Y-91843636D01*
X88562270Y-91843636D01*
X88555999Y-92286065D01*
X88549727Y-92728493D01*
X88332562Y-92783099D01*
X88043374Y-92865354D01*
X87765598Y-92962789D01*
X87510098Y-93071134D01*
X87287737Y-93186117D01*
X87248504Y-93209349D01*
X87176196Y-93252331D01*
X87120237Y-93283917D01*
X87091312Y-93298106D01*
X87089987Y-93298364D01*
X87068992Y-93284650D01*
X87018044Y-93246599D01*
X86943157Y-93188839D01*
X86850345Y-93116002D01*
X86760182Y-93044364D01*
X86655755Y-92962007D01*
X86562915Y-92890792D01*
X86487958Y-92835387D01*
X86437179Y-92800461D01*
X86417708Y-92790364D01*
X86394897Y-92805848D01*
X86345139Y-92848721D01*
X86273967Y-92913608D01*
X86186914Y-92995137D01*
X86089510Y-93087935D01*
X85987288Y-93186629D01*
X85885780Y-93285846D01*
X85790517Y-93380214D01*
X85707032Y-93464358D01*
X85640857Y-93532908D01*
X85597523Y-93580489D01*
X85582546Y-93601515D01*
X85597664Y-93624259D01*
X85639596Y-93674524D01*
X85703207Y-93746481D01*
X85783361Y-93834302D01*
X85859636Y-93915982D01*
X85949623Y-94012241D01*
X86027405Y-94097055D01*
X86087864Y-94164710D01*
X86125881Y-94209491D01*
X86136727Y-94225272D01*
X86125699Y-94250476D01*
X86095944Y-94306172D01*
X86052457Y-94383227D01*
X86016858Y-94444412D01*
X85906522Y-94651350D01*
X85803687Y-94880702D01*
X85716135Y-95113570D01*
X85651647Y-95331057D01*
X85651468Y-95331782D01*
X85600468Y-95538182D01*
X84682000Y-95538182D01*
X84682000Y-96646545D01*
X85605636Y-96646545D01*
X85605636Y-97016000D01*
X84312546Y-97016000D01*
X84312546Y-95168727D01*
X84814773Y-95168179D01*
X85317000Y-95167630D01*
X85381421Y-94965756D01*
X85420379Y-94855423D01*
X85472289Y-94724330D01*
X85528919Y-94592757D01*
X85560375Y-94524859D01*
X85605755Y-94428871D01*
X85642634Y-94348421D01*
X85666998Y-94292432D01*
X85674909Y-94270241D01*
X85659856Y-94249347D01*
X85617889Y-94200237D01*
X85553796Y-94128274D01*
X85472364Y-94038825D01*
X85378382Y-93937253D01*
X85363512Y-93921317D01*
X85251757Y-93800321D01*
X85169999Y-93708329D01*
X85115455Y-93641818D01*
X85085342Y-93597262D01*
X85076875Y-93571137D01*
X85080648Y-93563159D01*
X85102993Y-93541855D01*
X85154449Y-93491775D01*
X85231270Y-93416598D01*
X85329710Y-93320000D01*
X85446024Y-93205657D01*
X85576464Y-93077246D01*
X85717284Y-92938445D01*
X85746226Y-92909898D01*
X86383270Y-92281468D01*
X87110886Y-92854456D01*
X87322306Y-92756235D01*
X87559550Y-92653920D01*
X87818892Y-92555801D01*
X88059046Y-92476247D01*
X88191818Y-92435566D01*
X88191818Y-91474182D01*
X90223818Y-91474182D01*
X90223818Y-92460771D01*
X90430005Y-92534526D01*
X90545170Y-92579116D01*
X90679000Y-92636070D01*
X90809493Y-92695865D01*
X90861686Y-92721373D01*
X91087182Y-92834466D01*
X91203909Y-92734439D01*
X91270000Y-92677198D01*
X91357860Y-92600267D01*
X91454844Y-92514752D01*
X91528437Y-92449460D01*
X91736238Y-92264509D01*
X91817074Y-92329636D01*
X91851999Y-92360956D01*
X91915119Y-92420857D01*
X92002119Y-92505115D01*
X92108686Y-92609508D01*
X92230507Y-92729812D01*
X92363268Y-92861805D01*
X92485495Y-92984046D01*
X92639641Y-93138878D01*
X92763926Y-93264518D01*
X92861274Y-93364303D01*
X92934605Y-93441569D01*
X92986841Y-93499653D01*
X93020905Y-93541892D01*
X93039718Y-93571622D01*
X93046202Y-93592180D01*
X93043279Y-93606903D01*
X93037824Y-93614801D01*
X92922594Y-93751249D01*
X92815508Y-93879778D01*
X92720310Y-93995750D01*
X92640741Y-94094525D01*
X92580544Y-94171466D01*
X92543461Y-94221935D01*
X92532909Y-94240580D01*
X92542209Y-94269290D01*
X92567311Y-94329817D01*
X92604020Y-94412348D01*
X92634715Y-94478681D01*
X92689888Y-94603814D01*
X92747312Y-94746526D01*
X92796913Y-94881456D01*
X92809265Y-94918165D01*
X92846049Y-95025021D01*
X92875489Y-95094729D01*
X92901560Y-95134912D01*
X92928243Y-95153193D01*
X92932596Y-95154531D01*
X92972261Y-95159162D01*
X93048999Y-95163154D01*
X93153700Y-95166210D01*
X93277255Y-95168032D01*
X93358409Y-95168412D01*
X93733636Y-95168727D01*
X93733636Y-97016000D01*
X92810000Y-97016000D01*
G36*
X92353960Y-96447953D02*
G01*
X92341373Y-96640027D01*
X92320055Y-96803304D01*
X92317012Y-96819727D01*
X92220111Y-97208982D01*
X92083150Y-97576341D01*
X92000364Y-97750670D01*
X91803778Y-98086304D01*
X91572745Y-98392254D01*
X91309549Y-98666829D01*
X91016473Y-98908340D01*
X90695800Y-99115095D01*
X90349815Y-99285404D01*
X89980801Y-99417577D01*
X89635000Y-99501739D01*
X89476031Y-99524071D01*
X89286541Y-99537673D01*
X89081361Y-99542545D01*
X88875319Y-99538687D01*
X88683246Y-99526100D01*
X88519969Y-99504782D01*
X88503546Y-99501739D01*
X88114291Y-99404838D01*
X87746931Y-99267877D01*
X87572603Y-99185091D01*
X87238354Y-98989102D01*
X86932723Y-98758141D01*
X86657871Y-98495087D01*
X86415960Y-98202821D01*
X86209154Y-97884225D01*
X86039613Y-97542178D01*
X85909501Y-97179561D01*
X85833645Y-96868363D01*
X85814930Y-96749299D01*
X85798908Y-96604851D01*
X85786335Y-96447770D01*
X85777962Y-96290809D01*
X85774544Y-96146716D01*
X85776832Y-96028244D01*
X85780997Y-95976909D01*
X85847921Y-95574390D01*
X85950051Y-95200480D01*
X86088592Y-94852535D01*
X86264750Y-94527911D01*
X86479732Y-94223964D01*
X86689757Y-93984199D01*
X86977756Y-93715077D01*
X87129636Y-93602969D01*
X87129636Y-94729742D01*
X87129636Y-97500909D01*
X87822364Y-97500909D01*
X87822364Y-95538182D01*
X88814690Y-95538182D01*
X88826818Y-97189182D01*
X89461818Y-97202030D01*
X89461818Y-95538182D01*
X90384942Y-95538182D01*
X90397000Y-97443182D01*
X91089727Y-97443182D01*
X91089727Y-94741545D01*
X89109682Y-94735644D01*
X87129636Y-94729742D01*
X87129636Y-93602969D01*
X87287682Y-93486309D01*
X87620483Y-93297385D01*
X87977107Y-93147793D01*
X88358503Y-93037021D01*
X88503546Y-93006261D01*
X88662515Y-92983929D01*
X88852005Y-92970326D01*
X89057185Y-92965454D01*
X89263226Y-92969312D01*
X89455300Y-92981900D01*
X89618577Y-93003218D01*
X89635000Y-93006261D01*
X90024255Y-93103162D01*
X90391614Y-93240123D01*
X90565943Y-93322909D01*
X90901577Y-93519495D01*
X91207527Y-93750528D01*
X91482102Y-94013724D01*
X91723613Y-94306800D01*
X91930368Y-94627473D01*
X92100677Y-94973458D01*
X92232850Y-95342472D01*
X92317012Y-95688273D01*
X92339344Y-95847242D01*
X92352946Y-96036732D01*
X92357818Y-96241912D01*
X92353960Y-96447953D01*
G37*
X92353960Y-96447953D02*
X92341373Y-96640027D01*
X92320055Y-96803304D01*
X92317012Y-96819727D01*
X92220111Y-97208982D01*
X92083150Y-97576341D01*
X92000364Y-97750670D01*
X91803778Y-98086304D01*
X91572745Y-98392254D01*
X91309549Y-98666829D01*
X91016473Y-98908340D01*
X90695800Y-99115095D01*
X90349815Y-99285404D01*
X89980801Y-99417577D01*
X89635000Y-99501739D01*
X89476031Y-99524071D01*
X89286541Y-99537673D01*
X89081361Y-99542545D01*
X88875319Y-99538687D01*
X88683246Y-99526100D01*
X88519969Y-99504782D01*
X88503546Y-99501739D01*
X88114291Y-99404838D01*
X87746931Y-99267877D01*
X87572603Y-99185091D01*
X87238354Y-98989102D01*
X86932723Y-98758141D01*
X86657871Y-98495087D01*
X86415960Y-98202821D01*
X86209154Y-97884225D01*
X86039613Y-97542178D01*
X85909501Y-97179561D01*
X85833645Y-96868363D01*
X85814930Y-96749299D01*
X85798908Y-96604851D01*
X85786335Y-96447770D01*
X85777962Y-96290809D01*
X85774544Y-96146716D01*
X85776832Y-96028244D01*
X85780997Y-95976909D01*
X85847921Y-95574390D01*
X85950051Y-95200480D01*
X86088592Y-94852535D01*
X86264750Y-94527911D01*
X86479732Y-94223964D01*
X86689757Y-93984199D01*
X86977756Y-93715077D01*
X87129636Y-93602969D01*
X87129636Y-94729742D01*
X87129636Y-97500909D01*
X87822364Y-97500909D01*
X87822364Y-95538182D01*
X88814690Y-95538182D01*
X88826818Y-97189182D01*
X89461818Y-97202030D01*
X89461818Y-95538182D01*
X90384942Y-95538182D01*
X90397000Y-97443182D01*
X91089727Y-97443182D01*
X91089727Y-94741545D01*
X89109682Y-94735644D01*
X87129636Y-94729742D01*
X87129636Y-93602969D01*
X87287682Y-93486309D01*
X87620483Y-93297385D01*
X87977107Y-93147793D01*
X88358503Y-93037021D01*
X88503546Y-93006261D01*
X88662515Y-92983929D01*
X88852005Y-92970326D01*
X89057185Y-92965454D01*
X89263226Y-92969312D01*
X89455300Y-92981900D01*
X89618577Y-93003218D01*
X89635000Y-93006261D01*
X90024255Y-93103162D01*
X90391614Y-93240123D01*
X90565943Y-93322909D01*
X90901577Y-93519495D01*
X91207527Y-93750528D01*
X91482102Y-94013724D01*
X91723613Y-94306800D01*
X91930368Y-94627473D01*
X92100677Y-94973458D01*
X92232850Y-95342472D01*
X92317012Y-95688273D01*
X92339344Y-95847242D01*
X92352946Y-96036732D01*
X92357818Y-96241912D01*
X92353960Y-96447953D01*
D14*
G04 #@! TO.C,C1*
X96362779Y-91890000D02*
X96037221Y-91890000D01*
X96362779Y-92910000D02*
X96037221Y-92910000D01*
G04 #@! TO.C,C2*
X116590000Y-110550279D02*
X116590000Y-110224721D01*
X117610000Y-110550279D02*
X117610000Y-110224721D01*
G04 #@! TO.C,C3*
X113865000Y-109350000D02*
X113865000Y-113260000D01*
X113865000Y-113260000D02*
X115735000Y-113260000D01*
X115735000Y-113260000D02*
X115735000Y-109350000D01*
G04 #@! TO.C,C4*
X102265000Y-108540000D02*
X102265000Y-112450000D01*
X104135000Y-108540000D02*
X102265000Y-108540000D01*
X104135000Y-112450000D02*
X104135000Y-108540000D01*
G04 #@! TO.C,C5*
X95690000Y-104837221D02*
X95690000Y-105162779D01*
X96710000Y-104837221D02*
X96710000Y-105162779D01*
G04 #@! TO.C,D1*
X93777500Y-110160000D02*
X96462500Y-110160000D01*
X93777500Y-108240000D02*
X93777500Y-110160000D01*
X96462500Y-108240000D02*
X93777500Y-108240000D01*
G04 #@! TO.C,D2*
X133650000Y-106800000D02*
X130350000Y-106800000D01*
X130350000Y-106800000D02*
X130350000Y-112200000D01*
X133650000Y-106800000D02*
X133650000Y-112200000D01*
G04 #@! TO.C,D3*
X133850000Y-82800000D02*
X133850000Y-88200000D01*
X130550000Y-82800000D02*
X130550000Y-88200000D01*
X133850000Y-82800000D02*
X130550000Y-82800000D01*
G04 #@! TO.C,D4*
X133850000Y-118800000D02*
X130550000Y-118800000D01*
X130550000Y-118800000D02*
X130550000Y-124200000D01*
X133850000Y-118800000D02*
X133850000Y-124200000D01*
G04 #@! TO.C,D5*
X133850000Y-94800000D02*
X133850000Y-100200000D01*
X130550000Y-94800000D02*
X130550000Y-100200000D01*
X133850000Y-94800000D02*
X130550000Y-94800000D01*
G04 #@! TO.C,J2*
X160340000Y-105260000D02*
X160340000Y-115420000D01*
X161610000Y-105260000D02*
X153990000Y-105260000D01*
X153990000Y-105260000D02*
X153990000Y-115420000D01*
X153990000Y-115420000D02*
X161610000Y-115420000D01*
X161610000Y-115420000D02*
X161610000Y-105260000D01*
G04 #@! TO.C,J3*
X161560000Y-91570000D02*
X161560000Y-81410000D01*
X153940000Y-91570000D02*
X161560000Y-91570000D01*
X153940000Y-81410000D02*
X153940000Y-91570000D01*
X161560000Y-81410000D02*
X153940000Y-81410000D01*
X160290000Y-81410000D02*
X160290000Y-91570000D01*
G04 #@! TO.C,J4*
X160540000Y-129380000D02*
X160540000Y-139540000D01*
X161810000Y-129380000D02*
X154190000Y-129380000D01*
X154190000Y-129380000D02*
X154190000Y-139540000D01*
X154190000Y-139540000D02*
X161810000Y-139540000D01*
X161810000Y-139540000D02*
X161810000Y-129380000D01*
G04 #@! TO.C,J5*
X161660000Y-127420000D02*
X161660000Y-117260000D01*
X154040000Y-127420000D02*
X161660000Y-127420000D01*
X154040000Y-117260000D02*
X154040000Y-127420000D01*
X161660000Y-117260000D02*
X154040000Y-117260000D01*
X160390000Y-117260000D02*
X160390000Y-127420000D01*
G04 #@! TO.C,J6*
X161610000Y-103420000D02*
X161610000Y-93260000D01*
X153990000Y-103420000D02*
X161610000Y-103420000D01*
X153990000Y-93260000D02*
X153990000Y-103420000D01*
X161610000Y-93260000D02*
X153990000Y-93260000D01*
X160340000Y-93260000D02*
X160340000Y-103420000D01*
G04 #@! TO.C,PS1*
X128590000Y-132600000D02*
X128590000Y-130590000D01*
X94000000Y-139200000D02*
X128200000Y-139200000D01*
X94000000Y-119000000D02*
X94000000Y-139200000D01*
X128200000Y-119000000D02*
X94000000Y-119000000D01*
X128200000Y-139200000D02*
X128200000Y-119000000D01*
G04 #@! TO.C,R1*
X96037221Y-93690000D02*
X96362779Y-93690000D01*
X96037221Y-94710000D02*
X96362779Y-94710000D01*
G04 #@! TO.C,R2*
X96049721Y-90710000D02*
X96375279Y-90710000D01*
X96049721Y-89690000D02*
X96375279Y-89690000D01*
G04 #@! TO.C,R3*
X117490000Y-102837221D02*
X117490000Y-103162779D01*
X118510000Y-102837221D02*
X118510000Y-103162779D01*
G04 #@! TO.C,R4*
X117390000Y-99162779D02*
X117390000Y-98837221D01*
X118410000Y-99162779D02*
X118410000Y-98837221D01*
G04 #@! TO.C,R5*
X98910000Y-110162779D02*
X98910000Y-109837221D01*
X97890000Y-110162779D02*
X97890000Y-109837221D01*
G04 #@! TO.C,R6*
X124090000Y-105350279D02*
X124090000Y-105024721D01*
X125110000Y-105350279D02*
X125110000Y-105024721D01*
G04 #@! TO.C,R7*
X125510000Y-91975279D02*
X125510000Y-91649721D01*
X124490000Y-91975279D02*
X124490000Y-91649721D01*
G04 #@! TO.C,R8*
X125110000Y-111962779D02*
X125110000Y-111637221D01*
X124090000Y-111962779D02*
X124090000Y-111637221D01*
G04 #@! TO.C,R9*
X124490000Y-98150279D02*
X124490000Y-97824721D01*
X125510000Y-98150279D02*
X125510000Y-97824721D01*
G04 #@! TO.C,U1*
X105390000Y-117050000D02*
X105390000Y-111040000D01*
X112210000Y-114800000D02*
X112210000Y-111040000D01*
X105390000Y-111040000D02*
X106650000Y-111040000D01*
X112210000Y-111040000D02*
X110950000Y-111040000D01*
G04 #@! TO.C,U2*
X99080000Y-89200000D02*
X98470000Y-89200000D01*
X99080000Y-89200000D02*
X99080000Y-81580000D01*
X99080000Y-105820000D02*
X99080000Y-105200000D01*
X101200000Y-105820000D02*
X99080000Y-105820000D01*
X115320000Y-105820000D02*
X113200000Y-105820000D01*
X115320000Y-105200000D02*
X115320000Y-105820000D01*
X115320000Y-81580000D02*
X115320000Y-89200000D01*
X99080000Y-81580000D02*
X115320000Y-81580000D01*
G04 #@! TO.C,F1*
X152650000Y-134750000D02*
X131250000Y-134750000D01*
X152650000Y-134750000D02*
X152650000Y-129250000D01*
X131250000Y-129250000D02*
X131250000Y-134750000D01*
X131250000Y-129250000D02*
X152650000Y-129250000D01*
G04 #@! TO.C,K1*
X134550000Y-105400000D02*
X152550000Y-105400000D01*
X152550000Y-105400000D02*
X152550000Y-115400000D01*
X134550000Y-115400000D02*
X134550000Y-105400000D01*
X134550000Y-115400000D02*
X152550000Y-115400000D01*
G04 #@! TO.C,K2*
X134550000Y-91400000D02*
X152550000Y-91400000D01*
X134550000Y-91400000D02*
X134550000Y-81400000D01*
X152550000Y-81400000D02*
X152550000Y-91400000D01*
X134550000Y-81400000D02*
X152550000Y-81400000D01*
G04 #@! TO.C,K3*
X134550000Y-127400000D02*
X152550000Y-127400000D01*
X134550000Y-127400000D02*
X134550000Y-117400000D01*
X152550000Y-117400000D02*
X152550000Y-127400000D01*
X134550000Y-117400000D02*
X152550000Y-117400000D01*
G04 #@! TO.C,K4*
X134500000Y-93400000D02*
X152500000Y-93400000D01*
X152500000Y-93400000D02*
X152500000Y-103400000D01*
X134500000Y-103400000D02*
X134500000Y-93400000D01*
X134500000Y-103400000D02*
X152500000Y-103400000D01*
G04 #@! TO.C,Q1*
X128560000Y-106780000D02*
X128560000Y-105850000D01*
X128560000Y-103620000D02*
X128560000Y-104550000D01*
X128560000Y-103620000D02*
X126400000Y-103620000D01*
X128560000Y-106780000D02*
X127100000Y-106780000D01*
G04 #@! TO.C,Q2*
X128560000Y-93380000D02*
X127100000Y-93380000D01*
X128560000Y-90220000D02*
X126400000Y-90220000D01*
X128560000Y-90220000D02*
X128560000Y-91150000D01*
X128560000Y-93380000D02*
X128560000Y-92450000D01*
G04 #@! TO.C,Q3*
X128560000Y-113380000D02*
X127100000Y-113380000D01*
X128560000Y-110220000D02*
X126400000Y-110220000D01*
X128560000Y-110220000D02*
X128560000Y-111150000D01*
X128560000Y-113380000D02*
X128560000Y-112450000D01*
G04 #@! TO.C,Q4*
X128560000Y-99580000D02*
X128560000Y-98650000D01*
X128560000Y-96420000D02*
X128560000Y-97350000D01*
X128560000Y-96420000D02*
X126400000Y-96420000D01*
X128560000Y-99580000D02*
X127100000Y-99580000D01*
G04 #@! TO.C,C1*
X116304860Y-67661200D02*
X112394860Y-67661200D01*
X112394860Y-67661200D02*
X112394860Y-69531200D01*
X112394860Y-69531200D02*
X116304860Y-69531200D01*
G04 #@! TO.C,C2*
X119141179Y-69078260D02*
X118815621Y-69078260D01*
X119141179Y-68058260D02*
X118815621Y-68058260D01*
G04 #@! TO.C,C3*
X117045340Y-57483420D02*
X113135340Y-57483420D01*
X117045340Y-59353420D02*
X117045340Y-57483420D01*
X113135340Y-59353420D02*
X117045340Y-59353420D01*
G04 #@! TO.C,C4*
X121624761Y-59332280D02*
X121950319Y-59332280D01*
X121624761Y-58312280D02*
X121950319Y-58312280D01*
G04 #@! TO.C,C5*
X120645840Y-71860362D02*
X120645840Y-72377518D01*
X122065840Y-71860362D02*
X122065840Y-72377518D01*
G04 #@! TO.C,C6*
X123209500Y-56320261D02*
X123209500Y-56645819D01*
X122189500Y-56320261D02*
X122189500Y-56645819D01*
G04 #@! TO.C,C7*
X120505480Y-56297301D02*
X120505480Y-56622859D01*
X121525480Y-56297301D02*
X121525480Y-56622859D01*
G04 #@! TO.C,D1*
X112477320Y-57125440D02*
X115162320Y-57125440D01*
X112477320Y-55205440D02*
X112477320Y-57125440D01*
X115162320Y-55205440D02*
X112477320Y-55205440D01*
G04 #@! TO.C,F1*
X106638308Y-58495200D02*
X109410812Y-58495200D01*
X106638308Y-55075200D02*
X109410812Y-55075200D01*
G04 #@! TO.C,J1*
X99427860Y-59711500D02*
X99427860Y-61611500D01*
X100767860Y-59711500D02*
X99427860Y-59711500D01*
X95577860Y-62411500D02*
X99187860Y-62411500D01*
X110497860Y-71531500D02*
X110497860Y-62411500D01*
X102187860Y-62411500D02*
X105187860Y-62411500D01*
X108187860Y-62411500D02*
X110497860Y-62411500D01*
X108187860Y-71531500D02*
X110497860Y-71531500D01*
X102187860Y-71531500D02*
X105187860Y-71531500D01*
X95577860Y-71531500D02*
X99187860Y-71531500D01*
X95577860Y-71531500D02*
X95577860Y-62411500D01*
X98887860Y-71531500D02*
X98887860Y-62411500D01*
X98887860Y-63971500D02*
X103687860Y-63971500D01*
X98887860Y-69971500D02*
X103687860Y-69971500D01*
X103687860Y-63971500D02*
G75*
G02*
X103687860Y-69971500I0J-3000000D01*
G01*
G04 #@! TO.C,J3*
X151556800Y-70203940D02*
X153166800Y-70203940D01*
X151556800Y-68593940D02*
X151556800Y-70203940D01*
X168176800Y-55893940D02*
X166676800Y-55893940D01*
X168176800Y-57533940D02*
X168176800Y-55893940D01*
X166676800Y-57533940D02*
X168176800Y-57533940D01*
X168176800Y-59853940D02*
X166676800Y-59853940D01*
X168176800Y-61493940D02*
X168176800Y-59853940D01*
X166676800Y-61493940D02*
X168176800Y-61493940D01*
X168176800Y-63813940D02*
X166676800Y-63813940D01*
X168176800Y-65453940D02*
X168176800Y-63813940D01*
X166676800Y-65453940D02*
X168176800Y-65453940D01*
X168176800Y-67773940D02*
X166676800Y-67773940D01*
X168176800Y-69413940D02*
X168176800Y-67773940D01*
X166676800Y-69413940D02*
X168176800Y-69413940D01*
X160476800Y-70653940D02*
X157056800Y-70653940D01*
X160476800Y-69603940D02*
X160476800Y-70653940D01*
X166676800Y-69603940D02*
X160476800Y-69603940D01*
X166676800Y-55703940D02*
X166676800Y-69603940D01*
X160476800Y-55703940D02*
X166676800Y-55703940D01*
X160476800Y-54653940D02*
X160476800Y-55703940D01*
X157056800Y-54653940D02*
X160476800Y-54653940D01*
X157056800Y-70653940D02*
X157056800Y-54653940D01*
G04 #@! TO.C,Q1*
X112572440Y-72888580D02*
X112572440Y-71428580D01*
X115732440Y-72888580D02*
X115732440Y-70728580D01*
X115732440Y-72888580D02*
X114802440Y-72888580D01*
X112572440Y-72888580D02*
X113502440Y-72888580D01*
G04 #@! TO.C,R1*
X117693479Y-55447160D02*
X117367921Y-55447160D01*
X117693479Y-56467160D02*
X117367921Y-56467160D01*
G04 #@! TO.C,R2*
X118666520Y-72151881D02*
X118666520Y-72477439D01*
X119686520Y-72151881D02*
X119686520Y-72477439D01*
G04 #@! TO.C,R3*
X117603720Y-72162241D02*
X117603720Y-72487799D01*
X116583720Y-72162241D02*
X116583720Y-72487799D01*
G04 #@! TO.C,R4*
X133522759Y-74584980D02*
X133197201Y-74584980D01*
X133522759Y-73564980D02*
X133197201Y-73564980D01*
G04 #@! TO.C,R5*
X127299559Y-73552280D02*
X126974001Y-73552280D01*
X127299559Y-74572280D02*
X126974001Y-74572280D01*
G04 #@! TO.C,R6*
X130093121Y-73559900D02*
X130418679Y-73559900D01*
X130093121Y-74579900D02*
X130418679Y-74579900D01*
G04 #@! TO.C,R7*
X123229820Y-66328099D02*
X123229820Y-66002541D01*
X122209820Y-66328099D02*
X122209820Y-66002541D01*
G04 #@! TO.C,U1*
X112707100Y-60012220D02*
X118717100Y-60012220D01*
X114957100Y-66832220D02*
X118717100Y-66832220D01*
X118717100Y-60012220D02*
X118717100Y-61272220D01*
X118717100Y-66832220D02*
X118717100Y-65572220D01*
G04 #@! TO.C,U2*
X141557740Y-55846100D02*
X141557740Y-55236100D01*
X141557740Y-55846100D02*
X149177740Y-55846100D01*
X124937740Y-55846100D02*
X125557740Y-55846100D01*
X124937740Y-57966100D02*
X124937740Y-55846100D01*
X124937740Y-72086100D02*
X124937740Y-69966100D01*
X125557740Y-72086100D02*
X124937740Y-72086100D01*
X149177740Y-72086100D02*
X141557740Y-72086100D01*
X149177740Y-55846100D02*
X149177740Y-72086100D01*
G04 #@! TO.C,C1*
D10*
X96033333Y-94187142D02*
X95985714Y-94234761D01*
X95842857Y-94282380D01*
X95747619Y-94282380D01*
X95604761Y-94234761D01*
X95509523Y-94139523D01*
X95461904Y-94044285D01*
X95414285Y-93853809D01*
X95414285Y-93710952D01*
X95461904Y-93520476D01*
X95509523Y-93425238D01*
X95604761Y-93330000D01*
X95747619Y-93282380D01*
X95842857Y-93282380D01*
X95985714Y-93330000D01*
X96033333Y-93377619D01*
X96985714Y-94282380D02*
X96414285Y-94282380D01*
X96700000Y-94282380D02*
X96700000Y-93282380D01*
X96604761Y-93425238D01*
X96509523Y-93520476D01*
X96414285Y-93568095D01*
G04 #@! TO.C,C2*
X116027142Y-110554166D02*
X116074761Y-110601785D01*
X116122380Y-110744642D01*
X116122380Y-110839880D01*
X116074761Y-110982738D01*
X115979523Y-111077976D01*
X115884285Y-111125595D01*
X115693809Y-111173214D01*
X115550952Y-111173214D01*
X115360476Y-111125595D01*
X115265238Y-111077976D01*
X115170000Y-110982738D01*
X115122380Y-110839880D01*
X115122380Y-110744642D01*
X115170000Y-110601785D01*
X115217619Y-110554166D01*
X115217619Y-110173214D02*
X115170000Y-110125595D01*
X115122380Y-110030357D01*
X115122380Y-109792261D01*
X115170000Y-109697023D01*
X115217619Y-109649404D01*
X115312857Y-109601785D01*
X115408095Y-109601785D01*
X115550952Y-109649404D01*
X116122380Y-110220833D01*
X116122380Y-109601785D01*
G04 #@! TO.C,C3*
X113407142Y-111116666D02*
X113454761Y-111164285D01*
X113502380Y-111307142D01*
X113502380Y-111402380D01*
X113454761Y-111545238D01*
X113359523Y-111640476D01*
X113264285Y-111688095D01*
X113073809Y-111735714D01*
X112930952Y-111735714D01*
X112740476Y-111688095D01*
X112645238Y-111640476D01*
X112550000Y-111545238D01*
X112502380Y-111402380D01*
X112502380Y-111307142D01*
X112550000Y-111164285D01*
X112597619Y-111116666D01*
X112502380Y-110783333D02*
X112502380Y-110164285D01*
X112883333Y-110497619D01*
X112883333Y-110354761D01*
X112930952Y-110259523D01*
X112978571Y-110211904D01*
X113073809Y-110164285D01*
X113311904Y-110164285D01*
X113407142Y-110211904D01*
X113454761Y-110259523D01*
X113502380Y-110354761D01*
X113502380Y-110640476D01*
X113454761Y-110735714D01*
X113407142Y-110783333D01*
G04 #@! TO.C,C4*
X105307142Y-111016666D02*
X105354761Y-111064285D01*
X105402380Y-111207142D01*
X105402380Y-111302380D01*
X105354761Y-111445238D01*
X105259523Y-111540476D01*
X105164285Y-111588095D01*
X104973809Y-111635714D01*
X104830952Y-111635714D01*
X104640476Y-111588095D01*
X104545238Y-111540476D01*
X104450000Y-111445238D01*
X104402380Y-111302380D01*
X104402380Y-111207142D01*
X104450000Y-111064285D01*
X104497619Y-111016666D01*
X104735714Y-110159523D02*
X105402380Y-110159523D01*
X104354761Y-110397619D02*
X105069047Y-110635714D01*
X105069047Y-110016666D01*
G04 #@! TO.C,C5*
X97987142Y-105166666D02*
X98034761Y-105214285D01*
X98082380Y-105357142D01*
X98082380Y-105452380D01*
X98034761Y-105595238D01*
X97939523Y-105690476D01*
X97844285Y-105738095D01*
X97653809Y-105785714D01*
X97510952Y-105785714D01*
X97320476Y-105738095D01*
X97225238Y-105690476D01*
X97130000Y-105595238D01*
X97082380Y-105452380D01*
X97082380Y-105357142D01*
X97130000Y-105214285D01*
X97177619Y-105166666D01*
X97082380Y-104261904D02*
X97082380Y-104738095D01*
X97558571Y-104785714D01*
X97510952Y-104738095D01*
X97463333Y-104642857D01*
X97463333Y-104404761D01*
X97510952Y-104309523D01*
X97558571Y-104261904D01*
X97653809Y-104214285D01*
X97891904Y-104214285D01*
X97987142Y-104261904D01*
X98034761Y-104309523D01*
X98082380Y-104404761D01*
X98082380Y-104642857D01*
X98034761Y-104738095D01*
X97987142Y-104785714D01*
G04 #@! TO.C,D1*
X94724404Y-108002380D02*
X94724404Y-107002380D01*
X94962500Y-107002380D01*
X95105357Y-107050000D01*
X95200595Y-107145238D01*
X95248214Y-107240476D01*
X95295833Y-107430952D01*
X95295833Y-107573809D01*
X95248214Y-107764285D01*
X95200595Y-107859523D01*
X95105357Y-107954761D01*
X94962500Y-108002380D01*
X94724404Y-108002380D01*
X96248214Y-108002380D02*
X95676785Y-108002380D01*
X95962500Y-108002380D02*
X95962500Y-107002380D01*
X95867261Y-107145238D01*
X95772023Y-107240476D01*
X95676785Y-107288095D01*
G04 #@! TO.C,D2*
X134952380Y-110938095D02*
X133952380Y-110938095D01*
X133952380Y-110700000D01*
X134000000Y-110557142D01*
X134095238Y-110461904D01*
X134190476Y-110414285D01*
X134380952Y-110366666D01*
X134523809Y-110366666D01*
X134714285Y-110414285D01*
X134809523Y-110461904D01*
X134904761Y-110557142D01*
X134952380Y-110700000D01*
X134952380Y-110938095D01*
X134047619Y-109985714D02*
X134000000Y-109938095D01*
X133952380Y-109842857D01*
X133952380Y-109604761D01*
X134000000Y-109509523D01*
X134047619Y-109461904D01*
X134142857Y-109414285D01*
X134238095Y-109414285D01*
X134380952Y-109461904D01*
X134952380Y-110033333D01*
X134952380Y-109414285D01*
G04 #@! TO.C,D3*
X135152380Y-86938095D02*
X134152380Y-86938095D01*
X134152380Y-86700000D01*
X134200000Y-86557142D01*
X134295238Y-86461904D01*
X134390476Y-86414285D01*
X134580952Y-86366666D01*
X134723809Y-86366666D01*
X134914285Y-86414285D01*
X135009523Y-86461904D01*
X135104761Y-86557142D01*
X135152380Y-86700000D01*
X135152380Y-86938095D01*
X134152380Y-86033333D02*
X134152380Y-85414285D01*
X134533333Y-85747619D01*
X134533333Y-85604761D01*
X134580952Y-85509523D01*
X134628571Y-85461904D01*
X134723809Y-85414285D01*
X134961904Y-85414285D01*
X135057142Y-85461904D01*
X135104761Y-85509523D01*
X135152380Y-85604761D01*
X135152380Y-85890476D01*
X135104761Y-85985714D01*
X135057142Y-86033333D01*
G04 #@! TO.C,D4*
X135152380Y-122938095D02*
X134152380Y-122938095D01*
X134152380Y-122700000D01*
X134200000Y-122557142D01*
X134295238Y-122461904D01*
X134390476Y-122414285D01*
X134580952Y-122366666D01*
X134723809Y-122366666D01*
X134914285Y-122414285D01*
X135009523Y-122461904D01*
X135104761Y-122557142D01*
X135152380Y-122700000D01*
X135152380Y-122938095D01*
X134485714Y-121509523D02*
X135152380Y-121509523D01*
X134104761Y-121747619D02*
X134819047Y-121985714D01*
X134819047Y-121366666D01*
G04 #@! TO.C,D5*
X135152380Y-98938095D02*
X134152380Y-98938095D01*
X134152380Y-98700000D01*
X134200000Y-98557142D01*
X134295238Y-98461904D01*
X134390476Y-98414285D01*
X134580952Y-98366666D01*
X134723809Y-98366666D01*
X134914285Y-98414285D01*
X135009523Y-98461904D01*
X135104761Y-98557142D01*
X135152380Y-98700000D01*
X135152380Y-98938095D01*
X134152380Y-97461904D02*
X134152380Y-97938095D01*
X134628571Y-97985714D01*
X134580952Y-97938095D01*
X134533333Y-97842857D01*
X134533333Y-97604761D01*
X134580952Y-97509523D01*
X134628571Y-97461904D01*
X134723809Y-97414285D01*
X134961904Y-97414285D01*
X135057142Y-97461904D01*
X135104761Y-97509523D01*
X135152380Y-97604761D01*
X135152380Y-97842857D01*
X135104761Y-97938095D01*
X135057142Y-97985714D01*
G04 #@! TO.C,H1*
X88038095Y-132252380D02*
X88038095Y-131252380D01*
X88038095Y-131728571D02*
X88609523Y-131728571D01*
X88609523Y-132252380D02*
X88609523Y-131252380D01*
X89609523Y-132252380D02*
X89038095Y-132252380D01*
X89323809Y-132252380D02*
X89323809Y-131252380D01*
X89228571Y-131395238D01*
X89133333Y-131490476D01*
X89038095Y-131538095D01*
G04 #@! TO.C,H2*
X123238095Y-81052380D02*
X123238095Y-80052380D01*
X123238095Y-80528571D02*
X123809523Y-80528571D01*
X123809523Y-81052380D02*
X123809523Y-80052380D01*
X124238095Y-80147619D02*
X124285714Y-80100000D01*
X124380952Y-80052380D01*
X124619047Y-80052380D01*
X124714285Y-80100000D01*
X124761904Y-80147619D01*
X124809523Y-80242857D01*
X124809523Y-80338095D01*
X124761904Y-80480952D01*
X124190476Y-81052380D01*
X124809523Y-81052380D01*
G04 #@! TO.C,J2*
X152172380Y-110673333D02*
X152886666Y-110673333D01*
X153029523Y-110720952D01*
X153124761Y-110816190D01*
X153172380Y-110959047D01*
X153172380Y-111054285D01*
X152267619Y-110244761D02*
X152220000Y-110197142D01*
X152172380Y-110101904D01*
X152172380Y-109863809D01*
X152220000Y-109768571D01*
X152267619Y-109720952D01*
X152362857Y-109673333D01*
X152458095Y-109673333D01*
X152600952Y-109720952D01*
X153172380Y-110292380D01*
X153172380Y-109673333D01*
G04 #@! TO.C,J3*
X152122380Y-86823333D02*
X152836666Y-86823333D01*
X152979523Y-86870952D01*
X153074761Y-86966190D01*
X153122380Y-87109047D01*
X153122380Y-87204285D01*
X152122380Y-86442380D02*
X152122380Y-85823333D01*
X152503333Y-86156666D01*
X152503333Y-86013809D01*
X152550952Y-85918571D01*
X152598571Y-85870952D01*
X152693809Y-85823333D01*
X152931904Y-85823333D01*
X153027142Y-85870952D01*
X153074761Y-85918571D01*
X153122380Y-86013809D01*
X153122380Y-86299523D01*
X153074761Y-86394761D01*
X153027142Y-86442380D01*
G04 #@! TO.C,J4*
X152372380Y-134793333D02*
X153086666Y-134793333D01*
X153229523Y-134840952D01*
X153324761Y-134936190D01*
X153372380Y-135079047D01*
X153372380Y-135174285D01*
X152705714Y-133888571D02*
X153372380Y-133888571D01*
X152324761Y-134126666D02*
X153039047Y-134364761D01*
X153039047Y-133745714D01*
G04 #@! TO.C,J5*
X152222380Y-122673333D02*
X152936666Y-122673333D01*
X153079523Y-122720952D01*
X153174761Y-122816190D01*
X153222380Y-122959047D01*
X153222380Y-123054285D01*
X152222380Y-121720952D02*
X152222380Y-122197142D01*
X152698571Y-122244761D01*
X152650952Y-122197142D01*
X152603333Y-122101904D01*
X152603333Y-121863809D01*
X152650952Y-121768571D01*
X152698571Y-121720952D01*
X152793809Y-121673333D01*
X153031904Y-121673333D01*
X153127142Y-121720952D01*
X153174761Y-121768571D01*
X153222380Y-121863809D01*
X153222380Y-122101904D01*
X153174761Y-122197142D01*
X153127142Y-122244761D01*
G04 #@! TO.C,J6*
X152172380Y-98673333D02*
X152886666Y-98673333D01*
X153029523Y-98720952D01*
X153124761Y-98816190D01*
X153172380Y-98959047D01*
X153172380Y-99054285D01*
X152172380Y-97768571D02*
X152172380Y-97959047D01*
X152220000Y-98054285D01*
X152267619Y-98101904D01*
X152410476Y-98197142D01*
X152600952Y-98244761D01*
X152981904Y-98244761D01*
X153077142Y-98197142D01*
X153124761Y-98149523D01*
X153172380Y-98054285D01*
X153172380Y-97863809D01*
X153124761Y-97768571D01*
X153077142Y-97720952D01*
X152981904Y-97673333D01*
X152743809Y-97673333D01*
X152648571Y-97720952D01*
X152600952Y-97768571D01*
X152553333Y-97863809D01*
X152553333Y-98054285D01*
X152600952Y-98149523D01*
X152648571Y-98197142D01*
X152743809Y-98244761D01*
G04 #@! TO.C,PS1*
X130192380Y-133364285D02*
X129192380Y-133364285D01*
X129192380Y-132983333D01*
X129240000Y-132888095D01*
X129287619Y-132840476D01*
X129382857Y-132792857D01*
X129525714Y-132792857D01*
X129620952Y-132840476D01*
X129668571Y-132888095D01*
X129716190Y-132983333D01*
X129716190Y-133364285D01*
X130144761Y-132411904D02*
X130192380Y-132269047D01*
X130192380Y-132030952D01*
X130144761Y-131935714D01*
X130097142Y-131888095D01*
X130001904Y-131840476D01*
X129906666Y-131840476D01*
X129811428Y-131888095D01*
X129763809Y-131935714D01*
X129716190Y-132030952D01*
X129668571Y-132221428D01*
X129620952Y-132316666D01*
X129573333Y-132364285D01*
X129478095Y-132411904D01*
X129382857Y-132411904D01*
X129287619Y-132364285D01*
X129240000Y-132316666D01*
X129192380Y-132221428D01*
X129192380Y-131983333D01*
X129240000Y-131840476D01*
X130192380Y-130888095D02*
X130192380Y-131459523D01*
X130192380Y-131173809D02*
X129192380Y-131173809D01*
X129335238Y-131269047D01*
X129430476Y-131364285D01*
X129478095Y-131459523D01*
G04 #@! TO.C,R1*
X96033333Y-93222380D02*
X95700000Y-92746190D01*
X95461904Y-93222380D02*
X95461904Y-92222380D01*
X95842857Y-92222380D01*
X95938095Y-92270000D01*
X95985714Y-92317619D01*
X96033333Y-92412857D01*
X96033333Y-92555714D01*
X95985714Y-92650952D01*
X95938095Y-92698571D01*
X95842857Y-92746190D01*
X95461904Y-92746190D01*
X96985714Y-93222380D02*
X96414285Y-93222380D01*
X96700000Y-93222380D02*
X96700000Y-92222380D01*
X96604761Y-92365238D01*
X96509523Y-92460476D01*
X96414285Y-92508095D01*
G04 #@! TO.C,R2*
X96045833Y-89222380D02*
X95712500Y-88746190D01*
X95474404Y-89222380D02*
X95474404Y-88222380D01*
X95855357Y-88222380D01*
X95950595Y-88270000D01*
X95998214Y-88317619D01*
X96045833Y-88412857D01*
X96045833Y-88555714D01*
X95998214Y-88650952D01*
X95950595Y-88698571D01*
X95855357Y-88746190D01*
X95474404Y-88746190D01*
X96426785Y-88317619D02*
X96474404Y-88270000D01*
X96569642Y-88222380D01*
X96807738Y-88222380D01*
X96902976Y-88270000D01*
X96950595Y-88317619D01*
X96998214Y-88412857D01*
X96998214Y-88508095D01*
X96950595Y-88650952D01*
X96379166Y-89222380D01*
X96998214Y-89222380D01*
G04 #@! TO.C,R3*
X119882380Y-103166666D02*
X119406190Y-103500000D01*
X119882380Y-103738095D02*
X118882380Y-103738095D01*
X118882380Y-103357142D01*
X118930000Y-103261904D01*
X118977619Y-103214285D01*
X119072857Y-103166666D01*
X119215714Y-103166666D01*
X119310952Y-103214285D01*
X119358571Y-103261904D01*
X119406190Y-103357142D01*
X119406190Y-103738095D01*
X118882380Y-102833333D02*
X118882380Y-102214285D01*
X119263333Y-102547619D01*
X119263333Y-102404761D01*
X119310952Y-102309523D01*
X119358571Y-102261904D01*
X119453809Y-102214285D01*
X119691904Y-102214285D01*
X119787142Y-102261904D01*
X119834761Y-102309523D01*
X119882380Y-102404761D01*
X119882380Y-102690476D01*
X119834761Y-102785714D01*
X119787142Y-102833333D01*
G04 #@! TO.C,R4*
X116922380Y-99166666D02*
X116446190Y-99500000D01*
X116922380Y-99738095D02*
X115922380Y-99738095D01*
X115922380Y-99357142D01*
X115970000Y-99261904D01*
X116017619Y-99214285D01*
X116112857Y-99166666D01*
X116255714Y-99166666D01*
X116350952Y-99214285D01*
X116398571Y-99261904D01*
X116446190Y-99357142D01*
X116446190Y-99738095D01*
X116255714Y-98309523D02*
X116922380Y-98309523D01*
X115874761Y-98547619D02*
X116589047Y-98785714D01*
X116589047Y-98166666D01*
G04 #@! TO.C,R5*
X97422380Y-110166666D02*
X96946190Y-110500000D01*
X97422380Y-110738095D02*
X96422380Y-110738095D01*
X96422380Y-110357142D01*
X96470000Y-110261904D01*
X96517619Y-110214285D01*
X96612857Y-110166666D01*
X96755714Y-110166666D01*
X96850952Y-110214285D01*
X96898571Y-110261904D01*
X96946190Y-110357142D01*
X96946190Y-110738095D01*
X96422380Y-109261904D02*
X96422380Y-109738095D01*
X96898571Y-109785714D01*
X96850952Y-109738095D01*
X96803333Y-109642857D01*
X96803333Y-109404761D01*
X96850952Y-109309523D01*
X96898571Y-109261904D01*
X96993809Y-109214285D01*
X97231904Y-109214285D01*
X97327142Y-109261904D01*
X97374761Y-109309523D01*
X97422380Y-109404761D01*
X97422380Y-109642857D01*
X97374761Y-109738095D01*
X97327142Y-109785714D01*
G04 #@! TO.C,R6*
X123622380Y-105354166D02*
X123146190Y-105687500D01*
X123622380Y-105925595D02*
X122622380Y-105925595D01*
X122622380Y-105544642D01*
X122670000Y-105449404D01*
X122717619Y-105401785D01*
X122812857Y-105354166D01*
X122955714Y-105354166D01*
X123050952Y-105401785D01*
X123098571Y-105449404D01*
X123146190Y-105544642D01*
X123146190Y-105925595D01*
X122622380Y-104497023D02*
X122622380Y-104687500D01*
X122670000Y-104782738D01*
X122717619Y-104830357D01*
X122860476Y-104925595D01*
X123050952Y-104973214D01*
X123431904Y-104973214D01*
X123527142Y-104925595D01*
X123574761Y-104877976D01*
X123622380Y-104782738D01*
X123622380Y-104592261D01*
X123574761Y-104497023D01*
X123527142Y-104449404D01*
X123431904Y-104401785D01*
X123193809Y-104401785D01*
X123098571Y-104449404D01*
X123050952Y-104497023D01*
X123003333Y-104592261D01*
X123003333Y-104782738D01*
X123050952Y-104877976D01*
X123098571Y-104925595D01*
X123193809Y-104973214D01*
G04 #@! TO.C,R7*
X124022380Y-91979166D02*
X123546190Y-92312500D01*
X124022380Y-92550595D02*
X123022380Y-92550595D01*
X123022380Y-92169642D01*
X123070000Y-92074404D01*
X123117619Y-92026785D01*
X123212857Y-91979166D01*
X123355714Y-91979166D01*
X123450952Y-92026785D01*
X123498571Y-92074404D01*
X123546190Y-92169642D01*
X123546190Y-92550595D01*
X123022380Y-91645833D02*
X123022380Y-90979166D01*
X124022380Y-91407738D01*
G04 #@! TO.C,R8*
X123622380Y-111966666D02*
X123146190Y-112300000D01*
X123622380Y-112538095D02*
X122622380Y-112538095D01*
X122622380Y-112157142D01*
X122670000Y-112061904D01*
X122717619Y-112014285D01*
X122812857Y-111966666D01*
X122955714Y-111966666D01*
X123050952Y-112014285D01*
X123098571Y-112061904D01*
X123146190Y-112157142D01*
X123146190Y-112538095D01*
X123050952Y-111395238D02*
X123003333Y-111490476D01*
X122955714Y-111538095D01*
X122860476Y-111585714D01*
X122812857Y-111585714D01*
X122717619Y-111538095D01*
X122670000Y-111490476D01*
X122622380Y-111395238D01*
X122622380Y-111204761D01*
X122670000Y-111109523D01*
X122717619Y-111061904D01*
X122812857Y-111014285D01*
X122860476Y-111014285D01*
X122955714Y-111061904D01*
X123003333Y-111109523D01*
X123050952Y-111204761D01*
X123050952Y-111395238D01*
X123098571Y-111490476D01*
X123146190Y-111538095D01*
X123241428Y-111585714D01*
X123431904Y-111585714D01*
X123527142Y-111538095D01*
X123574761Y-111490476D01*
X123622380Y-111395238D01*
X123622380Y-111204761D01*
X123574761Y-111109523D01*
X123527142Y-111061904D01*
X123431904Y-111014285D01*
X123241428Y-111014285D01*
X123146190Y-111061904D01*
X123098571Y-111109523D01*
X123050952Y-111204761D01*
G04 #@! TO.C,R9*
X124022380Y-98154166D02*
X123546190Y-98487500D01*
X124022380Y-98725595D02*
X123022380Y-98725595D01*
X123022380Y-98344642D01*
X123070000Y-98249404D01*
X123117619Y-98201785D01*
X123212857Y-98154166D01*
X123355714Y-98154166D01*
X123450952Y-98201785D01*
X123498571Y-98249404D01*
X123546190Y-98344642D01*
X123546190Y-98725595D01*
X124022380Y-97677976D02*
X124022380Y-97487500D01*
X123974761Y-97392261D01*
X123927142Y-97344642D01*
X123784285Y-97249404D01*
X123593809Y-97201785D01*
X123212857Y-97201785D01*
X123117619Y-97249404D01*
X123070000Y-97297023D01*
X123022380Y-97392261D01*
X123022380Y-97582738D01*
X123070000Y-97677976D01*
X123117619Y-97725595D01*
X123212857Y-97773214D01*
X123450952Y-97773214D01*
X123546190Y-97725595D01*
X123593809Y-97677976D01*
X123641428Y-97582738D01*
X123641428Y-97392261D01*
X123593809Y-97297023D01*
X123546190Y-97249404D01*
X123450952Y-97201785D01*
G04 #@! TO.C,U1*
X103752380Y-113711904D02*
X104561904Y-113711904D01*
X104657142Y-113664285D01*
X104704761Y-113616666D01*
X104752380Y-113521428D01*
X104752380Y-113330952D01*
X104704761Y-113235714D01*
X104657142Y-113188095D01*
X104561904Y-113140476D01*
X103752380Y-113140476D01*
X104752380Y-112140476D02*
X104752380Y-112711904D01*
X104752380Y-112426190D02*
X103752380Y-112426190D01*
X103895238Y-112521428D01*
X103990476Y-112616666D01*
X104038095Y-112711904D01*
G04 #@! TO.C,U2*
X95878095Y-87892380D02*
X95878095Y-88701904D01*
X95925714Y-88797142D01*
X95973333Y-88844761D01*
X96068571Y-88892380D01*
X96259047Y-88892380D01*
X96354285Y-88844761D01*
X96401904Y-88797142D01*
X96449523Y-88701904D01*
X96449523Y-87892380D01*
X96878095Y-87987619D02*
X96925714Y-87940000D01*
X97020952Y-87892380D01*
X97259047Y-87892380D01*
X97354285Y-87940000D01*
X97401904Y-87987619D01*
X97449523Y-88082857D01*
X97449523Y-88178095D01*
X97401904Y-88320952D01*
X96830476Y-88892380D01*
X97449523Y-88892380D01*
G04 #@! TO.C,F1*
X142416666Y-128428571D02*
X142083333Y-128428571D01*
X142083333Y-128952380D02*
X142083333Y-127952380D01*
X142559523Y-127952380D01*
X143464285Y-128952380D02*
X142892857Y-128952380D01*
X143178571Y-128952380D02*
X143178571Y-127952380D01*
X143083333Y-128095238D01*
X142988095Y-128190476D01*
X142892857Y-128238095D01*
G04 #@! TO.C,K1*
X141311904Y-104852380D02*
X141311904Y-103852380D01*
X141883333Y-104852380D02*
X141454761Y-104280952D01*
X141883333Y-103852380D02*
X141311904Y-104423809D01*
X142835714Y-104852380D02*
X142264285Y-104852380D01*
X142550000Y-104852380D02*
X142550000Y-103852380D01*
X142454761Y-103995238D01*
X142359523Y-104090476D01*
X142264285Y-104138095D01*
G04 #@! TO.C,K2*
X141311904Y-85452380D02*
X141311904Y-84452380D01*
X141883333Y-85452380D02*
X141454761Y-84880952D01*
X141883333Y-84452380D02*
X141311904Y-85023809D01*
X142264285Y-84547619D02*
X142311904Y-84500000D01*
X142407142Y-84452380D01*
X142645238Y-84452380D01*
X142740476Y-84500000D01*
X142788095Y-84547619D01*
X142835714Y-84642857D01*
X142835714Y-84738095D01*
X142788095Y-84880952D01*
X142216666Y-85452380D01*
X142835714Y-85452380D01*
G04 #@! TO.C,K3*
X141311904Y-116852380D02*
X141311904Y-115852380D01*
X141883333Y-116852380D02*
X141454761Y-116280952D01*
X141883333Y-115852380D02*
X141311904Y-116423809D01*
X142216666Y-115852380D02*
X142835714Y-115852380D01*
X142502380Y-116233333D01*
X142645238Y-116233333D01*
X142740476Y-116280952D01*
X142788095Y-116328571D01*
X142835714Y-116423809D01*
X142835714Y-116661904D01*
X142788095Y-116757142D01*
X142740476Y-116804761D01*
X142645238Y-116852380D01*
X142359523Y-116852380D01*
X142264285Y-116804761D01*
X142216666Y-116757142D01*
G04 #@! TO.C,K4*
X141261904Y-92852380D02*
X141261904Y-91852380D01*
X141833333Y-92852380D02*
X141404761Y-92280952D01*
X141833333Y-91852380D02*
X141261904Y-92423809D01*
X142690476Y-92185714D02*
X142690476Y-92852380D01*
X142452380Y-91804761D02*
X142214285Y-92519047D01*
X142833333Y-92519047D01*
G04 #@! TO.C,Q1*
X127704761Y-103247619D02*
X127609523Y-103200000D01*
X127514285Y-103104761D01*
X127371428Y-102961904D01*
X127276190Y-102914285D01*
X127180952Y-102914285D01*
X127228571Y-103152380D02*
X127133333Y-103104761D01*
X127038095Y-103009523D01*
X126990476Y-102819047D01*
X126990476Y-102485714D01*
X127038095Y-102295238D01*
X127133333Y-102200000D01*
X127228571Y-102152380D01*
X127419047Y-102152380D01*
X127514285Y-102200000D01*
X127609523Y-102295238D01*
X127657142Y-102485714D01*
X127657142Y-102819047D01*
X127609523Y-103009523D01*
X127514285Y-103104761D01*
X127419047Y-103152380D01*
X127228571Y-103152380D01*
X128609523Y-103152380D02*
X128038095Y-103152380D01*
X128323809Y-103152380D02*
X128323809Y-102152380D01*
X128228571Y-102295238D01*
X128133333Y-102390476D01*
X128038095Y-102438095D01*
G04 #@! TO.C,Q2*
X127704761Y-89847619D02*
X127609523Y-89800000D01*
X127514285Y-89704761D01*
X127371428Y-89561904D01*
X127276190Y-89514285D01*
X127180952Y-89514285D01*
X127228571Y-89752380D02*
X127133333Y-89704761D01*
X127038095Y-89609523D01*
X126990476Y-89419047D01*
X126990476Y-89085714D01*
X127038095Y-88895238D01*
X127133333Y-88800000D01*
X127228571Y-88752380D01*
X127419047Y-88752380D01*
X127514285Y-88800000D01*
X127609523Y-88895238D01*
X127657142Y-89085714D01*
X127657142Y-89419047D01*
X127609523Y-89609523D01*
X127514285Y-89704761D01*
X127419047Y-89752380D01*
X127228571Y-89752380D01*
X128038095Y-88847619D02*
X128085714Y-88800000D01*
X128180952Y-88752380D01*
X128419047Y-88752380D01*
X128514285Y-88800000D01*
X128561904Y-88847619D01*
X128609523Y-88942857D01*
X128609523Y-89038095D01*
X128561904Y-89180952D01*
X127990476Y-89752380D01*
X128609523Y-89752380D01*
G04 #@! TO.C,Q3*
X127704761Y-109847619D02*
X127609523Y-109800000D01*
X127514285Y-109704761D01*
X127371428Y-109561904D01*
X127276190Y-109514285D01*
X127180952Y-109514285D01*
X127228571Y-109752380D02*
X127133333Y-109704761D01*
X127038095Y-109609523D01*
X126990476Y-109419047D01*
X126990476Y-109085714D01*
X127038095Y-108895238D01*
X127133333Y-108800000D01*
X127228571Y-108752380D01*
X127419047Y-108752380D01*
X127514285Y-108800000D01*
X127609523Y-108895238D01*
X127657142Y-109085714D01*
X127657142Y-109419047D01*
X127609523Y-109609523D01*
X127514285Y-109704761D01*
X127419047Y-109752380D01*
X127228571Y-109752380D01*
X127990476Y-108752380D02*
X128609523Y-108752380D01*
X128276190Y-109133333D01*
X128419047Y-109133333D01*
X128514285Y-109180952D01*
X128561904Y-109228571D01*
X128609523Y-109323809D01*
X128609523Y-109561904D01*
X128561904Y-109657142D01*
X128514285Y-109704761D01*
X128419047Y-109752380D01*
X128133333Y-109752380D01*
X128038095Y-109704761D01*
X127990476Y-109657142D01*
G04 #@! TO.C,Q4*
X127704761Y-96047619D02*
X127609523Y-96000000D01*
X127514285Y-95904761D01*
X127371428Y-95761904D01*
X127276190Y-95714285D01*
X127180952Y-95714285D01*
X127228571Y-95952380D02*
X127133333Y-95904761D01*
X127038095Y-95809523D01*
X126990476Y-95619047D01*
X126990476Y-95285714D01*
X127038095Y-95095238D01*
X127133333Y-95000000D01*
X127228571Y-94952380D01*
X127419047Y-94952380D01*
X127514285Y-95000000D01*
X127609523Y-95095238D01*
X127657142Y-95285714D01*
X127657142Y-95619047D01*
X127609523Y-95809523D01*
X127514285Y-95904761D01*
X127419047Y-95952380D01*
X127228571Y-95952380D01*
X128514285Y-95285714D02*
X128514285Y-95952380D01*
X128276190Y-94904761D02*
X128038095Y-95619047D01*
X128657142Y-95619047D01*
G04 #@! TO.C,H3*
X88238095Y-81252380D02*
X88238095Y-80252380D01*
X88238095Y-80728571D02*
X88809523Y-80728571D01*
X88809523Y-81252380D02*
X88809523Y-80252380D01*
X89190476Y-80252380D02*
X89809523Y-80252380D01*
X89476190Y-80633333D01*
X89619047Y-80633333D01*
X89714285Y-80680952D01*
X89761904Y-80728571D01*
X89809523Y-80823809D01*
X89809523Y-81061904D01*
X89761904Y-81157142D01*
X89714285Y-81204761D01*
X89619047Y-81252380D01*
X89333333Y-81252380D01*
X89238095Y-81204761D01*
X89190476Y-81157142D01*
G04 #@! TO.C,C1*
X112007142Y-68766666D02*
X112054761Y-68814285D01*
X112102380Y-68957142D01*
X112102380Y-69052380D01*
X112054761Y-69195238D01*
X111959523Y-69290476D01*
X111864285Y-69338095D01*
X111673809Y-69385714D01*
X111530952Y-69385714D01*
X111340476Y-69338095D01*
X111245238Y-69290476D01*
X111150000Y-69195238D01*
X111102380Y-69052380D01*
X111102380Y-68957142D01*
X111150000Y-68814285D01*
X111197619Y-68766666D01*
X112102380Y-67814285D02*
X112102380Y-68385714D01*
X112102380Y-68100000D02*
X111102380Y-68100000D01*
X111245238Y-68195238D01*
X111340476Y-68290476D01*
X111388095Y-68385714D01*
G04 #@! TO.C,C2*
X118811733Y-70355402D02*
X118764114Y-70403021D01*
X118621257Y-70450640D01*
X118526019Y-70450640D01*
X118383161Y-70403021D01*
X118287923Y-70307783D01*
X118240304Y-70212545D01*
X118192685Y-70022069D01*
X118192685Y-69879212D01*
X118240304Y-69688736D01*
X118287923Y-69593498D01*
X118383161Y-69498260D01*
X118526019Y-69450640D01*
X118621257Y-69450640D01*
X118764114Y-69498260D01*
X118811733Y-69545879D01*
X119192685Y-69545879D02*
X119240304Y-69498260D01*
X119335542Y-69450640D01*
X119573638Y-69450640D01*
X119668876Y-69498260D01*
X119716495Y-69545879D01*
X119764114Y-69641117D01*
X119764114Y-69736355D01*
X119716495Y-69879212D01*
X119145066Y-70450640D01*
X119764114Y-70450640D01*
G04 #@! TO.C,C3*
X112157142Y-58616666D02*
X112204761Y-58664285D01*
X112252380Y-58807142D01*
X112252380Y-58902380D01*
X112204761Y-59045238D01*
X112109523Y-59140476D01*
X112014285Y-59188095D01*
X111823809Y-59235714D01*
X111680952Y-59235714D01*
X111490476Y-59188095D01*
X111395238Y-59140476D01*
X111300000Y-59045238D01*
X111252380Y-58902380D01*
X111252380Y-58807142D01*
X111300000Y-58664285D01*
X111347619Y-58616666D01*
X111252380Y-58283333D02*
X111252380Y-57664285D01*
X111633333Y-57997619D01*
X111633333Y-57854761D01*
X111680952Y-57759523D01*
X111728571Y-57711904D01*
X111823809Y-57664285D01*
X112061904Y-57664285D01*
X112157142Y-57711904D01*
X112204761Y-57759523D01*
X112252380Y-57854761D01*
X112252380Y-58140476D01*
X112204761Y-58235714D01*
X112157142Y-58283333D01*
G04 #@! TO.C,C4*
X121633333Y-60707142D02*
X121585714Y-60754761D01*
X121442857Y-60802380D01*
X121347619Y-60802380D01*
X121204761Y-60754761D01*
X121109523Y-60659523D01*
X121061904Y-60564285D01*
X121014285Y-60373809D01*
X121014285Y-60230952D01*
X121061904Y-60040476D01*
X121109523Y-59945238D01*
X121204761Y-59850000D01*
X121347619Y-59802380D01*
X121442857Y-59802380D01*
X121585714Y-59850000D01*
X121633333Y-59897619D01*
X122490476Y-60135714D02*
X122490476Y-60802380D01*
X122252380Y-59754761D02*
X122014285Y-60469047D01*
X122633333Y-60469047D01*
G04 #@! TO.C,C5*
X121707142Y-75016666D02*
X121754761Y-75064285D01*
X121802380Y-75207142D01*
X121802380Y-75302380D01*
X121754761Y-75445238D01*
X121659523Y-75540476D01*
X121564285Y-75588095D01*
X121373809Y-75635714D01*
X121230952Y-75635714D01*
X121040476Y-75588095D01*
X120945238Y-75540476D01*
X120850000Y-75445238D01*
X120802380Y-75302380D01*
X120802380Y-75207142D01*
X120850000Y-75064285D01*
X120897619Y-75016666D01*
X120802380Y-74111904D02*
X120802380Y-74588095D01*
X121278571Y-74635714D01*
X121230952Y-74588095D01*
X121183333Y-74492857D01*
X121183333Y-74254761D01*
X121230952Y-74159523D01*
X121278571Y-74111904D01*
X121373809Y-74064285D01*
X121611904Y-74064285D01*
X121707142Y-74111904D01*
X121754761Y-74159523D01*
X121802380Y-74254761D01*
X121802380Y-74492857D01*
X121754761Y-74588095D01*
X121707142Y-74635714D01*
G04 #@! TO.C,C6*
X123057142Y-54116666D02*
X123104761Y-54164285D01*
X123152380Y-54307142D01*
X123152380Y-54402380D01*
X123104761Y-54545238D01*
X123009523Y-54640476D01*
X122914285Y-54688095D01*
X122723809Y-54735714D01*
X122580952Y-54735714D01*
X122390476Y-54688095D01*
X122295238Y-54640476D01*
X122200000Y-54545238D01*
X122152380Y-54402380D01*
X122152380Y-54307142D01*
X122200000Y-54164285D01*
X122247619Y-54116666D01*
X122152380Y-53259523D02*
X122152380Y-53450000D01*
X122200000Y-53545238D01*
X122247619Y-53592857D01*
X122390476Y-53688095D01*
X122580952Y-53735714D01*
X122961904Y-53735714D01*
X123057142Y-53688095D01*
X123104761Y-53640476D01*
X123152380Y-53545238D01*
X123152380Y-53354761D01*
X123104761Y-53259523D01*
X123057142Y-53211904D01*
X122961904Y-53164285D01*
X122723809Y-53164285D01*
X122628571Y-53211904D01*
X122580952Y-53259523D01*
X122533333Y-53354761D01*
X122533333Y-53545238D01*
X122580952Y-53640476D01*
X122628571Y-53688095D01*
X122723809Y-53735714D01*
G04 #@! TO.C,C7*
X121407142Y-54066666D02*
X121454761Y-54114285D01*
X121502380Y-54257142D01*
X121502380Y-54352380D01*
X121454761Y-54495238D01*
X121359523Y-54590476D01*
X121264285Y-54638095D01*
X121073809Y-54685714D01*
X120930952Y-54685714D01*
X120740476Y-54638095D01*
X120645238Y-54590476D01*
X120550000Y-54495238D01*
X120502380Y-54352380D01*
X120502380Y-54257142D01*
X120550000Y-54114285D01*
X120597619Y-54066666D01*
X120502380Y-53733333D02*
X120502380Y-53066666D01*
X121502380Y-53495238D01*
G04 #@! TO.C,D1*
X113424224Y-54967820D02*
X113424224Y-53967820D01*
X113662320Y-53967820D01*
X113805177Y-54015440D01*
X113900415Y-54110678D01*
X113948034Y-54205916D01*
X113995653Y-54396392D01*
X113995653Y-54539249D01*
X113948034Y-54729725D01*
X113900415Y-54824963D01*
X113805177Y-54920201D01*
X113662320Y-54967820D01*
X113424224Y-54967820D01*
X114948034Y-54967820D02*
X114376605Y-54967820D01*
X114662320Y-54967820D02*
X114662320Y-53967820D01*
X114567081Y-54110678D01*
X114471843Y-54205916D01*
X114376605Y-54253535D01*
G04 #@! TO.C,F1*
X107691226Y-54063771D02*
X107357893Y-54063771D01*
X107357893Y-54587580D02*
X107357893Y-53587580D01*
X107834083Y-53587580D01*
X108738845Y-54587580D02*
X108167417Y-54587580D01*
X108453131Y-54587580D02*
X108453131Y-53587580D01*
X108357893Y-53730438D01*
X108262655Y-53825676D01*
X108167417Y-53873295D01*
G04 #@! TO.C,H1*
X99349855Y-55508260D02*
X99349855Y-54508260D01*
X99349855Y-54984451D02*
X99921283Y-54984451D01*
X99921283Y-55508260D02*
X99921283Y-54508260D01*
X100921283Y-55508260D02*
X100349855Y-55508260D01*
X100635569Y-55508260D02*
X100635569Y-54508260D01*
X100540331Y-54651118D01*
X100445093Y-54746356D01*
X100349855Y-54793975D01*
G04 #@! TO.C,H2*
X160238095Y-74618320D02*
X160238095Y-73618320D01*
X160238095Y-74094511D02*
X160809523Y-74094511D01*
X160809523Y-74618320D02*
X160809523Y-73618320D01*
X161238095Y-73713559D02*
X161285714Y-73665940D01*
X161380952Y-73618320D01*
X161619047Y-73618320D01*
X161714285Y-73665940D01*
X161761904Y-73713559D01*
X161809523Y-73808797D01*
X161809523Y-73904035D01*
X161761904Y-74046892D01*
X161190476Y-74618320D01*
X161809523Y-74618320D01*
G04 #@! TO.C,J1*
X93666666Y-73102380D02*
X93666666Y-73816666D01*
X93619047Y-73959523D01*
X93523809Y-74054761D01*
X93380952Y-74102380D01*
X93285714Y-74102380D01*
X94666666Y-74102380D02*
X94095238Y-74102380D01*
X94380952Y-74102380D02*
X94380952Y-73102380D01*
X94285714Y-73245238D01*
X94190476Y-73340476D01*
X94095238Y-73388095D01*
G04 #@! TO.C,J3*
X158002380Y-63533333D02*
X158716666Y-63533333D01*
X158859523Y-63580952D01*
X158954761Y-63676190D01*
X159002380Y-63819047D01*
X159002380Y-63914285D01*
X158002380Y-63152380D02*
X158002380Y-62533333D01*
X158383333Y-62866666D01*
X158383333Y-62723809D01*
X158430952Y-62628571D01*
X158478571Y-62580952D01*
X158573809Y-62533333D01*
X158811904Y-62533333D01*
X158907142Y-62580952D01*
X158954761Y-62628571D01*
X159002380Y-62723809D01*
X159002380Y-63009523D01*
X158954761Y-63104761D01*
X158907142Y-63152380D01*
G04 #@! TO.C,Q1*
X114054761Y-75297619D02*
X113959523Y-75250000D01*
X113864285Y-75154761D01*
X113721428Y-75011904D01*
X113626190Y-74964285D01*
X113530952Y-74964285D01*
X113578571Y-75202380D02*
X113483333Y-75154761D01*
X113388095Y-75059523D01*
X113340476Y-74869047D01*
X113340476Y-74535714D01*
X113388095Y-74345238D01*
X113483333Y-74250000D01*
X113578571Y-74202380D01*
X113769047Y-74202380D01*
X113864285Y-74250000D01*
X113959523Y-74345238D01*
X114007142Y-74535714D01*
X114007142Y-74869047D01*
X113959523Y-75059523D01*
X113864285Y-75154761D01*
X113769047Y-75202380D01*
X113578571Y-75202380D01*
X114959523Y-75202380D02*
X114388095Y-75202380D01*
X114673809Y-75202380D02*
X114673809Y-74202380D01*
X114578571Y-74345238D01*
X114483333Y-74440476D01*
X114388095Y-74488095D01*
G04 #@! TO.C,R1*
X117333333Y-55002380D02*
X117000000Y-54526190D01*
X116761904Y-55002380D02*
X116761904Y-54002380D01*
X117142857Y-54002380D01*
X117238095Y-54050000D01*
X117285714Y-54097619D01*
X117333333Y-54192857D01*
X117333333Y-54335714D01*
X117285714Y-54430952D01*
X117238095Y-54478571D01*
X117142857Y-54526190D01*
X116761904Y-54526190D01*
X118285714Y-55002380D02*
X117714285Y-55002380D01*
X118000000Y-55002380D02*
X118000000Y-54002380D01*
X117904761Y-54145238D01*
X117809523Y-54240476D01*
X117714285Y-54288095D01*
G04 #@! TO.C,R2*
X119652380Y-74966666D02*
X119176190Y-75300000D01*
X119652380Y-75538095D02*
X118652380Y-75538095D01*
X118652380Y-75157142D01*
X118700000Y-75061904D01*
X118747619Y-75014285D01*
X118842857Y-74966666D01*
X118985714Y-74966666D01*
X119080952Y-75014285D01*
X119128571Y-75061904D01*
X119176190Y-75157142D01*
X119176190Y-75538095D01*
X118747619Y-74585714D02*
X118700000Y-74538095D01*
X118652380Y-74442857D01*
X118652380Y-74204761D01*
X118700000Y-74109523D01*
X118747619Y-74061904D01*
X118842857Y-74014285D01*
X118938095Y-74014285D01*
X119080952Y-74061904D01*
X119652380Y-74633333D01*
X119652380Y-74014285D01*
G04 #@! TO.C,R3*
X117552380Y-74916666D02*
X117076190Y-75250000D01*
X117552380Y-75488095D02*
X116552380Y-75488095D01*
X116552380Y-75107142D01*
X116600000Y-75011904D01*
X116647619Y-74964285D01*
X116742857Y-74916666D01*
X116885714Y-74916666D01*
X116980952Y-74964285D01*
X117028571Y-75011904D01*
X117076190Y-75107142D01*
X117076190Y-75488095D01*
X116552380Y-74583333D02*
X116552380Y-73964285D01*
X116933333Y-74297619D01*
X116933333Y-74154761D01*
X116980952Y-74059523D01*
X117028571Y-74011904D01*
X117123809Y-73964285D01*
X117361904Y-73964285D01*
X117457142Y-74011904D01*
X117504761Y-74059523D01*
X117552380Y-74154761D01*
X117552380Y-74440476D01*
X117504761Y-74535714D01*
X117457142Y-74583333D01*
G04 #@! TO.C,R4*
X133193313Y-75957360D02*
X132859980Y-75481170D01*
X132621884Y-75957360D02*
X132621884Y-74957360D01*
X133002837Y-74957360D01*
X133098075Y-75004980D01*
X133145694Y-75052599D01*
X133193313Y-75147837D01*
X133193313Y-75290694D01*
X133145694Y-75385932D01*
X133098075Y-75433551D01*
X133002837Y-75481170D01*
X132621884Y-75481170D01*
X134050456Y-75290694D02*
X134050456Y-75957360D01*
X133812360Y-74909741D02*
X133574265Y-75624027D01*
X134193313Y-75624027D01*
G04 #@! TO.C,R5*
X126970113Y-75944660D02*
X126636780Y-75468470D01*
X126398684Y-75944660D02*
X126398684Y-74944660D01*
X126779637Y-74944660D01*
X126874875Y-74992280D01*
X126922494Y-75039899D01*
X126970113Y-75135137D01*
X126970113Y-75277994D01*
X126922494Y-75373232D01*
X126874875Y-75420851D01*
X126779637Y-75468470D01*
X126398684Y-75468470D01*
X127874875Y-74944660D02*
X127398684Y-74944660D01*
X127351065Y-75420851D01*
X127398684Y-75373232D01*
X127493922Y-75325613D01*
X127732018Y-75325613D01*
X127827256Y-75373232D01*
X127874875Y-75420851D01*
X127922494Y-75516089D01*
X127922494Y-75754184D01*
X127874875Y-75849422D01*
X127827256Y-75897041D01*
X127732018Y-75944660D01*
X127493922Y-75944660D01*
X127398684Y-75897041D01*
X127351065Y-75849422D01*
G04 #@! TO.C,R6*
X130183333Y-75952380D02*
X129850000Y-75476190D01*
X129611904Y-75952380D02*
X129611904Y-74952380D01*
X129992857Y-74952380D01*
X130088095Y-75000000D01*
X130135714Y-75047619D01*
X130183333Y-75142857D01*
X130183333Y-75285714D01*
X130135714Y-75380952D01*
X130088095Y-75428571D01*
X129992857Y-75476190D01*
X129611904Y-75476190D01*
X131040476Y-74952380D02*
X130850000Y-74952380D01*
X130754761Y-75000000D01*
X130707142Y-75047619D01*
X130611904Y-75190476D01*
X130564285Y-75380952D01*
X130564285Y-75761904D01*
X130611904Y-75857142D01*
X130659523Y-75904761D01*
X130754761Y-75952380D01*
X130945238Y-75952380D01*
X131040476Y-75904761D01*
X131088095Y-75857142D01*
X131135714Y-75761904D01*
X131135714Y-75523809D01*
X131088095Y-75428571D01*
X131040476Y-75380952D01*
X130945238Y-75333333D01*
X130754761Y-75333333D01*
X130659523Y-75380952D01*
X130611904Y-75428571D01*
X130564285Y-75523809D01*
G04 #@! TO.C,R7*
X123202380Y-69116666D02*
X122726190Y-69450000D01*
X123202380Y-69688095D02*
X122202380Y-69688095D01*
X122202380Y-69307142D01*
X122250000Y-69211904D01*
X122297619Y-69164285D01*
X122392857Y-69116666D01*
X122535714Y-69116666D01*
X122630952Y-69164285D01*
X122678571Y-69211904D01*
X122726190Y-69307142D01*
X122726190Y-69688095D01*
X122202380Y-68783333D02*
X122202380Y-68116666D01*
X123202380Y-68545238D01*
G04 #@! TO.C,U1*
X111152380Y-64211904D02*
X111961904Y-64211904D01*
X112057142Y-64164285D01*
X112104761Y-64116666D01*
X112152380Y-64021428D01*
X112152380Y-63830952D01*
X112104761Y-63735714D01*
X112057142Y-63688095D01*
X111961904Y-63640476D01*
X111152380Y-63640476D01*
X112152380Y-62640476D02*
X112152380Y-63211904D01*
X112152380Y-62926190D02*
X111152380Y-62926190D01*
X111295238Y-63021428D01*
X111390476Y-63116666D01*
X111438095Y-63211904D01*
G04 #@! TO.C,U2*
X132746220Y-65116304D02*
X133555744Y-65116304D01*
X133650982Y-65068685D01*
X133698601Y-65021066D01*
X133746220Y-64925828D01*
X133746220Y-64735352D01*
X133698601Y-64640114D01*
X133650982Y-64592495D01*
X133555744Y-64544876D01*
X132746220Y-64544876D01*
X132841459Y-64116304D02*
X132793840Y-64068685D01*
X132746220Y-63973447D01*
X132746220Y-63735352D01*
X132793840Y-63640114D01*
X132841459Y-63592495D01*
X132936697Y-63544876D01*
X133031935Y-63544876D01*
X133174792Y-63592495D01*
X133746220Y-64163923D01*
X133746220Y-63544876D01*
G04 #@! TD*
M02*
