M48
; DRILL file {KiCad (5.1.6)-1} date 01/22/21 22:35:19
; FORMAT={3:3/ absolute / metric / suppress leading zeros}
; #@! TF.CreationDate,2021-01-22T22:35:19+07:00
; #@! TF.GenerationSoftware,Kicad,Pcbnew,(5.1.6)-1
FMAT,2
METRIC,TZ
T1C0.400
T2C0.500
T3C0.762
T4C1.000
T5C1.520
T6C1.700
T7C2.200
T8C3.200
T9C0.300
T10C0.900
T11C2.000
%
G90
G05
T1
X88000Y-92000
X88000Y-98000
X88000Y-105000
X88000Y-113000
X88000Y-120000
X88000Y-127000
X95000Y-113000
X95000Y-127000
X95400Y-91700
X96150Y-100750
X98800Y-57900
X100950Y-94200
X101200Y-57900
X101300Y-75700
X103000Y-90000
X103000Y-92000
X103000Y-127000
X103000Y-135000
X103200Y-112800
X103900Y-53100
X103900Y-55400
X103900Y-57900
X103900Y-60250
X103900Y-62400
X103900Y-64500
X103950Y-73700
X103950Y-75700
X105000Y-90000
X105000Y-92000
X106000Y-77250
X106000Y-79750
X106300Y-53100
X106300Y-55400
X106300Y-57900
X106300Y-60250
X106300Y-62350
X106450Y-64500
X106650Y-73700
X106650Y-75750
X106750Y-77250
X106750Y-79750
X107000Y-90000
X107000Y-92000
X107500Y-77250
X107500Y-79750
X108250Y-77250
X108250Y-79750
X108300Y-60250
X108350Y-55400
X108350Y-57900
X108350Y-62400
X108550Y-64500
X108550Y-67200
X109000Y-73700
X109000Y-75750
X109000Y-77250
X109000Y-79750
X109000Y-90000
X109300Y-53100
X109750Y-77250
X109750Y-79750
X110150Y-98200
X110500Y-77250
X110500Y-79750
X111000Y-90000
X111000Y-113000
X111000Y-127000
X111000Y-135000
X111760Y-60555
X112000Y-96000
X112300Y-53100
X112400Y-75700
X113400Y-92150
X114900Y-53100
X115300Y-75700
X115800Y-66900
X115900Y-60400
X115900Y-61700
X116400Y-90200
X117099Y-70334
X117100Y-66900
X117500Y-60400
X117600Y-61700
X117800Y-53100
X118100Y-75700
X119000Y-113000
X120500Y-53100
X121200Y-75700
X121523Y-69942
X122500Y-60600
X122500Y-61900
X123200Y-53100
X123900Y-71300
X124400Y-75700
X124600Y-57300
X125000Y-71300
X125058Y-68966
X125600Y-53100
X126771Y-66976
X126800Y-97600
X126800Y-104750
X126800Y-110200
X127100Y-63000
X127100Y-65000
X127800Y-75700
X128100Y-53100
X128800Y-119950
X128800Y-122900
X129400Y-63000
X129400Y-65000
X130657Y-61398
X130900Y-53100
X131500Y-75700
X132181Y-62749
X132300Y-58900
X132572Y-74075
X133600Y-53100
X134335Y-64989
X134500Y-58900
X135100Y-75700
X136500Y-53100
X138400Y-75800
X138558Y-71566
X139400Y-53100
X139850Y-73000
X141200Y-58900
X141200Y-60200
X141200Y-61800
X141200Y-63300
X141200Y-64700
X141200Y-66000
X141200Y-67500
X141200Y-69100
X141800Y-75800
X142600Y-53100
X145000Y-75800
X145700Y-53100
X147900Y-75800
X148900Y-53100
X149500Y-77250
X149500Y-79750
X150250Y-77250
X150250Y-79750
X150600Y-75800
X151000Y-77250
X151000Y-79750
X151750Y-77250
X151750Y-79750
X152500Y-77250
X152500Y-79750
X152800Y-53100
X153250Y-77250
X153250Y-79750
X153600Y-72600
X153600Y-75800
X154000Y-77250
X154000Y-79750
X156500Y-53100
X156500Y-55200
X156500Y-57500
X156500Y-60400
X156500Y-63000
X156500Y-66300
X156500Y-69400
X156500Y-72800
X156500Y-75800
X159600Y-53000
X159600Y-55200
X159700Y-57500
X159700Y-60200
X159700Y-63000
X159700Y-69400
X159800Y-66200
X162700Y-55200
X162700Y-57500
X162700Y-60200
X162800Y-63000
X162800Y-66300
X162800Y-69400
T2
X86600Y-85000
X87303Y-83303
X87303Y-86697
X89000Y-82600
X89000Y-87400
X90697Y-83303
X90697Y-86697
X91400Y-85000
X121600Y-84800
X122303Y-83103
X122303Y-86497
X124000Y-82400
X124000Y-87200
X125697Y-83103
X125697Y-86497
X126400Y-84800
X86400Y-136000
X87103Y-134303
X87103Y-137697
X88800Y-133600
X88800Y-138400
X90497Y-134303
X90497Y-137697
X91200Y-136000
T3
X135650Y-94600
X135650Y-102200
X146850Y-102200
X148350Y-94600
X150890Y-102200
X135700Y-82600
X135700Y-90200
X146900Y-90200
X148400Y-82600
X150940Y-90200
X135700Y-106600
X135700Y-114200
X146900Y-114200
X148400Y-106600
X150940Y-114200
X135700Y-118600
X135700Y-126200
X146900Y-126200
X148400Y-118600
X150940Y-126200
T4
X96400Y-121400
X96400Y-136800
X125800Y-126600
X125800Y-131600
X136250Y-132000
X147650Y-132000
T5
X157800Y-107800
X157800Y-112880
X158000Y-131920
X158000Y-137000
X157750Y-83950
X157750Y-89030
X157800Y-95800
X157800Y-100880
X157850Y-119800
X157850Y-124880
T6
X153167Y-56714
X153167Y-60674
X153167Y-64634
X153167Y-68594
T7
X161000Y-74000
X100000Y-55000
T8
X88800Y-136000
X89000Y-85000
X124000Y-84800
T10
X127092Y-60867
X127092Y-68867
T11
X105188Y-66972
T9
G00X100788Y-66972
M15
G01X100788Y-66972
M16
G05
T0
M30
