G04 #@! TF.GenerationSoftware,KiCad,Pcbnew,(5.1.6)-1*
G04 #@! TF.CreationDate,2021-01-22T22:35:21+07:00*
G04 #@! TF.ProjectId,penelize-esp-led-strip,70656e65-6c69-47a6-952d-6573702d6c65,rev?*
G04 #@! TF.SameCoordinates,Original*
G04 #@! TF.FileFunction,Legend,Bot*
G04 #@! TF.FilePolarity,Positive*
%FSLAX46Y46*%
G04 Gerber Fmt 4.6, Leading zero omitted, Abs format (unit mm)*
G04 Created by KiCad (PCBNEW (5.1.6)-1) date 2021-01-22 22:35:21*
%MOMM*%
%LPD*%
G01*
G04 APERTURE LIST*
%ADD10C,0.120000*%
%ADD11C,0.150000*%
%ADD12C,0.010000*%
%ADD13C,0.127000*%
%ADD14C,0.015000*%
G04 APERTURE END LIST*
D10*
X99450000Y-58500000D02*
X98400000Y-58500000D01*
X98950000Y-59300000D02*
X99450000Y-58500000D01*
X98400000Y-58500000D02*
X98950000Y-59300000D01*
X141800000Y-73000000D02*
X141800000Y-55300000D01*
X149550000Y-73000000D02*
X141800000Y-73000000D01*
X149550000Y-55300000D02*
X149550000Y-73000000D01*
X141800000Y-55300000D02*
X149550000Y-55300000D01*
D11*
X144310714Y-56840476D02*
X144977380Y-57030952D01*
X144501190Y-57221428D01*
X144977380Y-57411904D01*
X144310714Y-57602380D01*
X144310714Y-57888095D02*
X144977380Y-58078571D01*
X144501190Y-58269047D01*
X144977380Y-58459523D01*
X144310714Y-58650000D01*
X144310714Y-58935714D02*
X144977380Y-59126190D01*
X144501190Y-59316666D01*
X144977380Y-59507142D01*
X144310714Y-59697619D01*
X144882142Y-60078571D02*
X144929761Y-60126190D01*
X144977380Y-60078571D01*
X144929761Y-60030952D01*
X144882142Y-60078571D01*
X144977380Y-60078571D01*
X144929761Y-60935714D02*
X144977380Y-60840476D01*
X144977380Y-60650000D01*
X144929761Y-60554761D01*
X144834523Y-60507142D01*
X144453571Y-60507142D01*
X144358333Y-60554761D01*
X144310714Y-60650000D01*
X144310714Y-60840476D01*
X144358333Y-60935714D01*
X144453571Y-60983333D01*
X144548809Y-60983333D01*
X144644047Y-60507142D01*
X144310714Y-61269047D02*
X144310714Y-61650000D01*
X143977380Y-61411904D02*
X144834523Y-61411904D01*
X144929761Y-61459523D01*
X144977380Y-61554761D01*
X144977380Y-61650000D01*
X144977380Y-61983333D02*
X144310714Y-61983333D01*
X144501190Y-61983333D02*
X144405952Y-62030952D01*
X144358333Y-62078571D01*
X144310714Y-62173809D01*
X144310714Y-62269047D01*
X144977380Y-62745238D02*
X144929761Y-62650000D01*
X144882142Y-62602380D01*
X144786904Y-62554761D01*
X144501190Y-62554761D01*
X144405952Y-62602380D01*
X144358333Y-62650000D01*
X144310714Y-62745238D01*
X144310714Y-62888095D01*
X144358333Y-62983333D01*
X144405952Y-63030952D01*
X144501190Y-63078571D01*
X144786904Y-63078571D01*
X144882142Y-63030952D01*
X144929761Y-62983333D01*
X144977380Y-62888095D01*
X144977380Y-62745238D01*
X144310714Y-63507142D02*
X144977380Y-63507142D01*
X144405952Y-63507142D02*
X144358333Y-63554761D01*
X144310714Y-63650000D01*
X144310714Y-63792857D01*
X144358333Y-63888095D01*
X144453571Y-63935714D01*
X144977380Y-63935714D01*
X144977380Y-64411904D02*
X144310714Y-64411904D01*
X143977380Y-64411904D02*
X144025000Y-64364285D01*
X144072619Y-64411904D01*
X144025000Y-64459523D01*
X143977380Y-64411904D01*
X144072619Y-64411904D01*
X144929761Y-65316666D02*
X144977380Y-65221428D01*
X144977380Y-65030952D01*
X144929761Y-64935714D01*
X144882142Y-64888095D01*
X144786904Y-64840476D01*
X144501190Y-64840476D01*
X144405952Y-64888095D01*
X144358333Y-64935714D01*
X144310714Y-65030952D01*
X144310714Y-65221428D01*
X144358333Y-65316666D01*
X144929761Y-65697619D02*
X144977380Y-65792857D01*
X144977380Y-65983333D01*
X144929761Y-66078571D01*
X144834523Y-66126190D01*
X144786904Y-66126190D01*
X144691666Y-66078571D01*
X144644047Y-65983333D01*
X144644047Y-65840476D01*
X144596428Y-65745238D01*
X144501190Y-65697619D01*
X144453571Y-65697619D01*
X144358333Y-65745238D01*
X144310714Y-65840476D01*
X144310714Y-65983333D01*
X144358333Y-66078571D01*
X144977380Y-66554761D02*
X143977380Y-66554761D01*
X144596428Y-66650000D02*
X144977380Y-66935714D01*
X144310714Y-66935714D02*
X144691666Y-66554761D01*
X144977380Y-67364285D02*
X143977380Y-67364285D01*
X144977380Y-67792857D02*
X144453571Y-67792857D01*
X144358333Y-67745238D01*
X144310714Y-67650000D01*
X144310714Y-67507142D01*
X144358333Y-67411904D01*
X144405952Y-67364285D01*
X144882142Y-68269047D02*
X144929761Y-68316666D01*
X144977380Y-68269047D01*
X144929761Y-68221428D01*
X144882142Y-68269047D01*
X144977380Y-68269047D01*
X144929761Y-69173809D02*
X144977380Y-69078571D01*
X144977380Y-68888095D01*
X144929761Y-68792857D01*
X144882142Y-68745238D01*
X144786904Y-68697619D01*
X144501190Y-68697619D01*
X144405952Y-68745238D01*
X144358333Y-68792857D01*
X144310714Y-68888095D01*
X144310714Y-69078571D01*
X144358333Y-69173809D01*
X144977380Y-69745238D02*
X144929761Y-69650000D01*
X144882142Y-69602380D01*
X144786904Y-69554761D01*
X144501190Y-69554761D01*
X144405952Y-69602380D01*
X144358333Y-69650000D01*
X144310714Y-69745238D01*
X144310714Y-69888095D01*
X144358333Y-69983333D01*
X144405952Y-70030952D01*
X144501190Y-70078571D01*
X144786904Y-70078571D01*
X144882142Y-70030952D01*
X144929761Y-69983333D01*
X144977380Y-69888095D01*
X144977380Y-69745238D01*
X144977380Y-70507142D02*
X144310714Y-70507142D01*
X144405952Y-70507142D02*
X144358333Y-70554761D01*
X144310714Y-70650000D01*
X144310714Y-70792857D01*
X144358333Y-70888095D01*
X144453571Y-70935714D01*
X144977380Y-70935714D01*
X144453571Y-70935714D02*
X144358333Y-70983333D01*
X144310714Y-71078571D01*
X144310714Y-71221428D01*
X144358333Y-71316666D01*
X144453571Y-71364285D01*
X144977380Y-71364285D01*
X146627380Y-58459523D02*
X145627380Y-58459523D01*
X146008333Y-58459523D02*
X145960714Y-58554761D01*
X145960714Y-58745238D01*
X146008333Y-58840476D01*
X146055952Y-58888095D01*
X146151190Y-58935714D01*
X146436904Y-58935714D01*
X146532142Y-58888095D01*
X146579761Y-58840476D01*
X146627380Y-58745238D01*
X146627380Y-58554761D01*
X146579761Y-58459523D01*
X145960714Y-59269047D02*
X146627380Y-59507142D01*
X145960714Y-59745238D02*
X146627380Y-59507142D01*
X146865476Y-59411904D01*
X146913095Y-59364285D01*
X146960714Y-59269047D01*
X146627380Y-60888095D02*
X145627380Y-60888095D01*
X146627380Y-61459523D02*
X146055952Y-61030952D01*
X145627380Y-61459523D02*
X146198809Y-60888095D01*
X146627380Y-62030952D02*
X146579761Y-61935714D01*
X146532142Y-61888095D01*
X146436904Y-61840476D01*
X146151190Y-61840476D01*
X146055952Y-61888095D01*
X146008333Y-61935714D01*
X145960714Y-62030952D01*
X145960714Y-62173809D01*
X146008333Y-62269047D01*
X146055952Y-62316666D01*
X146151190Y-62364285D01*
X146436904Y-62364285D01*
X146532142Y-62316666D01*
X146579761Y-62269047D01*
X146627380Y-62173809D01*
X146627380Y-62030952D01*
X145960714Y-62792857D02*
X146627380Y-62792857D01*
X146055952Y-62792857D02*
X146008333Y-62840476D01*
X145960714Y-62935714D01*
X145960714Y-63078571D01*
X146008333Y-63173809D01*
X146103571Y-63221428D01*
X146627380Y-63221428D01*
X145960714Y-64126190D02*
X146770238Y-64126190D01*
X146865476Y-64078571D01*
X146913095Y-64030952D01*
X146960714Y-63935714D01*
X146960714Y-63792857D01*
X146913095Y-63697619D01*
X146579761Y-64126190D02*
X146627380Y-64030952D01*
X146627380Y-63840476D01*
X146579761Y-63745238D01*
X146532142Y-63697619D01*
X146436904Y-63650000D01*
X146151190Y-63650000D01*
X146055952Y-63697619D01*
X146008333Y-63745238D01*
X145960714Y-63840476D01*
X145960714Y-64030952D01*
X146008333Y-64126190D01*
X145627380Y-65221428D02*
X145627380Y-65792857D01*
X146627380Y-65507142D02*
X145627380Y-65507142D01*
X146627380Y-66126190D02*
X145627380Y-66126190D01*
X146627380Y-66554761D02*
X146103571Y-66554761D01*
X146008333Y-66507142D01*
X145960714Y-66411904D01*
X145960714Y-66269047D01*
X146008333Y-66173809D01*
X146055952Y-66126190D01*
X146579761Y-67411904D02*
X146627380Y-67316666D01*
X146627380Y-67126190D01*
X146579761Y-67030952D01*
X146484523Y-66983333D01*
X146103571Y-66983333D01*
X146008333Y-67030952D01*
X145960714Y-67126190D01*
X145960714Y-67316666D01*
X146008333Y-67411904D01*
X146103571Y-67459523D01*
X146198809Y-67459523D01*
X146294047Y-66983333D01*
X146627380Y-68316666D02*
X146103571Y-68316666D01*
X146008333Y-68269047D01*
X145960714Y-68173809D01*
X145960714Y-67983333D01*
X146008333Y-67888095D01*
X146579761Y-68316666D02*
X146627380Y-68221428D01*
X146627380Y-67983333D01*
X146579761Y-67888095D01*
X146484523Y-67840476D01*
X146389285Y-67840476D01*
X146294047Y-67888095D01*
X146246428Y-67983333D01*
X146246428Y-68221428D01*
X146198809Y-68316666D01*
X146627380Y-68792857D02*
X145960714Y-68792857D01*
X146151190Y-68792857D02*
X146055952Y-68840476D01*
X146008333Y-68888095D01*
X145960714Y-68983333D01*
X145960714Y-69078571D01*
X146627380Y-69840476D02*
X146103571Y-69840476D01*
X146008333Y-69792857D01*
X145960714Y-69697619D01*
X145960714Y-69507142D01*
X146008333Y-69411904D01*
X146579761Y-69840476D02*
X146627380Y-69745238D01*
X146627380Y-69507142D01*
X146579761Y-69411904D01*
X146484523Y-69364285D01*
X146389285Y-69364285D01*
X146294047Y-69411904D01*
X146246428Y-69507142D01*
X146246428Y-69745238D01*
X146198809Y-69840476D01*
D10*
G04 #@! TO.C,J1*
X98570000Y-94830000D02*
X97000000Y-94830000D01*
X98570000Y-95650000D02*
X98570000Y-94830000D01*
X84580000Y-108790000D02*
X90580000Y-108790000D01*
X84580000Y-107910000D02*
X84580000Y-108790000D01*
X90580000Y-107910000D02*
X84580000Y-107910000D01*
X95430000Y-108790000D02*
X93320000Y-108790000D01*
X95430000Y-107910000D02*
X93320000Y-107910000D01*
X84580000Y-106250000D02*
X90580000Y-106250000D01*
X84580000Y-105370000D02*
X84580000Y-106250000D01*
X90580000Y-105370000D02*
X84580000Y-105370000D01*
X95430000Y-106250000D02*
X93320000Y-106250000D01*
X95430000Y-105370000D02*
X93320000Y-105370000D01*
X84580000Y-103710000D02*
X90580000Y-103710000D01*
X84580000Y-102830000D02*
X84580000Y-103710000D01*
X90580000Y-102830000D02*
X84580000Y-102830000D01*
X95430000Y-103710000D02*
X93320000Y-103710000D01*
X95430000Y-102830000D02*
X93320000Y-102830000D01*
X84580000Y-101170000D02*
X90580000Y-101170000D01*
X84580000Y-100290000D02*
X84580000Y-101170000D01*
X90580000Y-100290000D02*
X84580000Y-100290000D01*
X95430000Y-101170000D02*
X93320000Y-101170000D01*
X95430000Y-100290000D02*
X93320000Y-100290000D01*
X84580000Y-98630000D02*
X90580000Y-98630000D01*
X84580000Y-97750000D02*
X84580000Y-98630000D01*
X90580000Y-97750000D02*
X84580000Y-97750000D01*
X95430000Y-98630000D02*
X93320000Y-98630000D01*
X95430000Y-97750000D02*
X93320000Y-97750000D01*
X84580000Y-96090000D02*
X90580000Y-96090000D01*
X84580000Y-95210000D02*
X84580000Y-96090000D01*
X90580000Y-95210000D02*
X84580000Y-95210000D01*
X95430000Y-96090000D02*
X93320000Y-96090000D01*
X95430000Y-95210000D02*
X93320000Y-95210000D01*
X93320000Y-109740000D02*
X93320000Y-94260000D01*
X90580000Y-109740000D02*
X93320000Y-109740000D01*
X90580000Y-94260000D02*
X90580000Y-109740000D01*
X93320000Y-94260000D02*
X90580000Y-94260000D01*
D12*
G04 #@! TO.C,G\u002A\u002A\u002A*
G36*
X112140000Y-65416000D02*
G01*
X112140000Y-65046545D01*
X111585818Y-65046545D01*
X111585818Y-63944860D01*
X111741682Y-63930139D01*
X111836931Y-63923493D01*
X111957628Y-63918366D01*
X112083044Y-63915554D01*
X112130005Y-63915255D01*
X112362465Y-63915091D01*
X112404188Y-63736136D01*
X112504681Y-63378059D01*
X112630690Y-63057237D01*
X112782884Y-62771997D01*
X112802282Y-62741108D01*
X112844784Y-62670594D01*
X112863236Y-62625856D01*
X112861073Y-62595553D01*
X112851221Y-62579472D01*
X112826162Y-62548285D01*
X112777972Y-62489120D01*
X112712902Y-62409626D01*
X112637206Y-62317451D01*
X112612300Y-62287182D01*
X112535955Y-62193970D01*
X112469756Y-62112262D01*
X112419487Y-62049262D01*
X112390930Y-62012173D01*
X112387193Y-62006743D01*
X112398551Y-61983030D01*
X112441258Y-61931253D01*
X112512487Y-61854409D01*
X112609410Y-61755495D01*
X112729202Y-61637509D01*
X112797768Y-61571363D01*
X113224355Y-61162421D01*
X113807753Y-61682127D01*
X114145740Y-61507396D01*
X114449409Y-61361765D01*
X114735332Y-61247586D01*
X114997500Y-61167203D01*
X115095636Y-61142402D01*
X115095636Y-60243636D01*
X116387730Y-60243636D01*
X116394001Y-60686065D01*
X116400273Y-61128493D01*
X116617438Y-61183099D01*
X116906626Y-61265354D01*
X117184402Y-61362789D01*
X117439902Y-61471134D01*
X117662263Y-61586117D01*
X117701496Y-61609349D01*
X117773804Y-61652331D01*
X117829763Y-61683917D01*
X117858688Y-61698106D01*
X117860013Y-61698364D01*
X117881008Y-61684650D01*
X117931956Y-61646599D01*
X118006843Y-61588839D01*
X118099655Y-61516002D01*
X118189818Y-61444364D01*
X118294245Y-61362007D01*
X118387085Y-61290792D01*
X118462042Y-61235387D01*
X118512821Y-61200461D01*
X118532292Y-61190364D01*
X118555103Y-61205848D01*
X118604861Y-61248721D01*
X118676033Y-61313608D01*
X118763086Y-61395137D01*
X118860490Y-61487935D01*
X118962712Y-61586629D01*
X119064220Y-61685846D01*
X119159483Y-61780214D01*
X119242968Y-61864358D01*
X119309143Y-61932908D01*
X119352477Y-61980489D01*
X119367454Y-62001515D01*
X119352336Y-62024259D01*
X119310404Y-62074524D01*
X119246793Y-62146481D01*
X119166639Y-62234302D01*
X119090364Y-62315982D01*
X119000377Y-62412241D01*
X118922595Y-62497055D01*
X118862136Y-62564710D01*
X118824119Y-62609491D01*
X118813273Y-62625272D01*
X118824301Y-62650476D01*
X118854056Y-62706172D01*
X118897543Y-62783227D01*
X118933142Y-62844412D01*
X119043478Y-63051350D01*
X119146313Y-63280702D01*
X119233865Y-63513570D01*
X119298353Y-63731057D01*
X119298532Y-63731782D01*
X119349532Y-63938182D01*
X120268000Y-63938182D01*
X120268000Y-65046545D01*
X119344364Y-65046545D01*
X119344364Y-65416000D01*
X120637454Y-65416000D01*
X120637454Y-63568727D01*
X120135227Y-63568179D01*
X119633000Y-63567630D01*
X119568579Y-63365756D01*
X119529621Y-63255423D01*
X119477711Y-63124330D01*
X119421081Y-62992757D01*
X119389625Y-62924859D01*
X119344245Y-62828871D01*
X119307366Y-62748421D01*
X119283002Y-62692432D01*
X119275091Y-62670241D01*
X119290144Y-62649347D01*
X119332111Y-62600237D01*
X119396204Y-62528274D01*
X119477636Y-62438825D01*
X119571618Y-62337253D01*
X119586488Y-62321317D01*
X119698243Y-62200321D01*
X119780001Y-62108329D01*
X119834545Y-62041818D01*
X119864658Y-61997262D01*
X119873125Y-61971137D01*
X119869352Y-61963159D01*
X119847007Y-61941855D01*
X119795551Y-61891775D01*
X119718730Y-61816598D01*
X119620290Y-61720000D01*
X119503976Y-61605657D01*
X119373536Y-61477246D01*
X119232716Y-61338445D01*
X119203774Y-61309898D01*
X118566730Y-60681468D01*
X117839114Y-61254456D01*
X117627694Y-61156235D01*
X117390450Y-61053920D01*
X117131108Y-60955801D01*
X116890954Y-60876247D01*
X116758182Y-60835566D01*
X116758182Y-59874182D01*
X114726182Y-59874182D01*
X114726182Y-60860771D01*
X114519995Y-60934526D01*
X114404830Y-60979116D01*
X114271000Y-61036070D01*
X114140507Y-61095865D01*
X114088314Y-61121373D01*
X113862818Y-61234466D01*
X113746091Y-61134439D01*
X113680000Y-61077198D01*
X113592140Y-61000267D01*
X113495156Y-60914752D01*
X113421563Y-60849460D01*
X113213762Y-60664509D01*
X113132926Y-60729636D01*
X113098001Y-60760956D01*
X113034881Y-60820857D01*
X112947881Y-60905115D01*
X112841314Y-61009508D01*
X112719493Y-61129812D01*
X112586732Y-61261805D01*
X112464505Y-61384046D01*
X112310359Y-61538878D01*
X112186074Y-61664518D01*
X112088726Y-61764303D01*
X112015395Y-61841569D01*
X111963159Y-61899653D01*
X111929095Y-61941892D01*
X111910282Y-61971622D01*
X111903798Y-61992180D01*
X111906721Y-62006903D01*
X111912176Y-62014801D01*
X112027406Y-62151249D01*
X112134492Y-62279778D01*
X112229690Y-62395750D01*
X112309259Y-62494525D01*
X112369456Y-62571466D01*
X112406539Y-62621935D01*
X112417091Y-62640580D01*
X112407791Y-62669290D01*
X112382689Y-62729817D01*
X112345980Y-62812348D01*
X112315285Y-62878681D01*
X112260112Y-63003814D01*
X112202688Y-63146526D01*
X112153087Y-63281456D01*
X112140735Y-63318165D01*
X112103951Y-63425021D01*
X112074511Y-63494729D01*
X112048440Y-63534912D01*
X112021757Y-63553193D01*
X112017404Y-63554531D01*
X111977739Y-63559162D01*
X111901001Y-63563154D01*
X111796300Y-63566210D01*
X111672745Y-63568032D01*
X111591591Y-63568412D01*
X111216364Y-63568727D01*
X111216364Y-65416000D01*
X112140000Y-65416000D01*
G37*
X112140000Y-65416000D02*
X112140000Y-65046545D01*
X111585818Y-65046545D01*
X111585818Y-63944860D01*
X111741682Y-63930139D01*
X111836931Y-63923493D01*
X111957628Y-63918366D01*
X112083044Y-63915554D01*
X112130005Y-63915255D01*
X112362465Y-63915091D01*
X112404188Y-63736136D01*
X112504681Y-63378059D01*
X112630690Y-63057237D01*
X112782884Y-62771997D01*
X112802282Y-62741108D01*
X112844784Y-62670594D01*
X112863236Y-62625856D01*
X112861073Y-62595553D01*
X112851221Y-62579472D01*
X112826162Y-62548285D01*
X112777972Y-62489120D01*
X112712902Y-62409626D01*
X112637206Y-62317451D01*
X112612300Y-62287182D01*
X112535955Y-62193970D01*
X112469756Y-62112262D01*
X112419487Y-62049262D01*
X112390930Y-62012173D01*
X112387193Y-62006743D01*
X112398551Y-61983030D01*
X112441258Y-61931253D01*
X112512487Y-61854409D01*
X112609410Y-61755495D01*
X112729202Y-61637509D01*
X112797768Y-61571363D01*
X113224355Y-61162421D01*
X113807753Y-61682127D01*
X114145740Y-61507396D01*
X114449409Y-61361765D01*
X114735332Y-61247586D01*
X114997500Y-61167203D01*
X115095636Y-61142402D01*
X115095636Y-60243636D01*
X116387730Y-60243636D01*
X116394001Y-60686065D01*
X116400273Y-61128493D01*
X116617438Y-61183099D01*
X116906626Y-61265354D01*
X117184402Y-61362789D01*
X117439902Y-61471134D01*
X117662263Y-61586117D01*
X117701496Y-61609349D01*
X117773804Y-61652331D01*
X117829763Y-61683917D01*
X117858688Y-61698106D01*
X117860013Y-61698364D01*
X117881008Y-61684650D01*
X117931956Y-61646599D01*
X118006843Y-61588839D01*
X118099655Y-61516002D01*
X118189818Y-61444364D01*
X118294245Y-61362007D01*
X118387085Y-61290792D01*
X118462042Y-61235387D01*
X118512821Y-61200461D01*
X118532292Y-61190364D01*
X118555103Y-61205848D01*
X118604861Y-61248721D01*
X118676033Y-61313608D01*
X118763086Y-61395137D01*
X118860490Y-61487935D01*
X118962712Y-61586629D01*
X119064220Y-61685846D01*
X119159483Y-61780214D01*
X119242968Y-61864358D01*
X119309143Y-61932908D01*
X119352477Y-61980489D01*
X119367454Y-62001515D01*
X119352336Y-62024259D01*
X119310404Y-62074524D01*
X119246793Y-62146481D01*
X119166639Y-62234302D01*
X119090364Y-62315982D01*
X119000377Y-62412241D01*
X118922595Y-62497055D01*
X118862136Y-62564710D01*
X118824119Y-62609491D01*
X118813273Y-62625272D01*
X118824301Y-62650476D01*
X118854056Y-62706172D01*
X118897543Y-62783227D01*
X118933142Y-62844412D01*
X119043478Y-63051350D01*
X119146313Y-63280702D01*
X119233865Y-63513570D01*
X119298353Y-63731057D01*
X119298532Y-63731782D01*
X119349532Y-63938182D01*
X120268000Y-63938182D01*
X120268000Y-65046545D01*
X119344364Y-65046545D01*
X119344364Y-65416000D01*
X120637454Y-65416000D01*
X120637454Y-63568727D01*
X120135227Y-63568179D01*
X119633000Y-63567630D01*
X119568579Y-63365756D01*
X119529621Y-63255423D01*
X119477711Y-63124330D01*
X119421081Y-62992757D01*
X119389625Y-62924859D01*
X119344245Y-62828871D01*
X119307366Y-62748421D01*
X119283002Y-62692432D01*
X119275091Y-62670241D01*
X119290144Y-62649347D01*
X119332111Y-62600237D01*
X119396204Y-62528274D01*
X119477636Y-62438825D01*
X119571618Y-62337253D01*
X119586488Y-62321317D01*
X119698243Y-62200321D01*
X119780001Y-62108329D01*
X119834545Y-62041818D01*
X119864658Y-61997262D01*
X119873125Y-61971137D01*
X119869352Y-61963159D01*
X119847007Y-61941855D01*
X119795551Y-61891775D01*
X119718730Y-61816598D01*
X119620290Y-61720000D01*
X119503976Y-61605657D01*
X119373536Y-61477246D01*
X119232716Y-61338445D01*
X119203774Y-61309898D01*
X118566730Y-60681468D01*
X117839114Y-61254456D01*
X117627694Y-61156235D01*
X117390450Y-61053920D01*
X117131108Y-60955801D01*
X116890954Y-60876247D01*
X116758182Y-60835566D01*
X116758182Y-59874182D01*
X114726182Y-59874182D01*
X114726182Y-60860771D01*
X114519995Y-60934526D01*
X114404830Y-60979116D01*
X114271000Y-61036070D01*
X114140507Y-61095865D01*
X114088314Y-61121373D01*
X113862818Y-61234466D01*
X113746091Y-61134439D01*
X113680000Y-61077198D01*
X113592140Y-61000267D01*
X113495156Y-60914752D01*
X113421563Y-60849460D01*
X113213762Y-60664509D01*
X113132926Y-60729636D01*
X113098001Y-60760956D01*
X113034881Y-60820857D01*
X112947881Y-60905115D01*
X112841314Y-61009508D01*
X112719493Y-61129812D01*
X112586732Y-61261805D01*
X112464505Y-61384046D01*
X112310359Y-61538878D01*
X112186074Y-61664518D01*
X112088726Y-61764303D01*
X112015395Y-61841569D01*
X111963159Y-61899653D01*
X111929095Y-61941892D01*
X111910282Y-61971622D01*
X111903798Y-61992180D01*
X111906721Y-62006903D01*
X111912176Y-62014801D01*
X112027406Y-62151249D01*
X112134492Y-62279778D01*
X112229690Y-62395750D01*
X112309259Y-62494525D01*
X112369456Y-62571466D01*
X112406539Y-62621935D01*
X112417091Y-62640580D01*
X112407791Y-62669290D01*
X112382689Y-62729817D01*
X112345980Y-62812348D01*
X112315285Y-62878681D01*
X112260112Y-63003814D01*
X112202688Y-63146526D01*
X112153087Y-63281456D01*
X112140735Y-63318165D01*
X112103951Y-63425021D01*
X112074511Y-63494729D01*
X112048440Y-63534912D01*
X112021757Y-63553193D01*
X112017404Y-63554531D01*
X111977739Y-63559162D01*
X111901001Y-63563154D01*
X111796300Y-63566210D01*
X111672745Y-63568032D01*
X111591591Y-63568412D01*
X111216364Y-63568727D01*
X111216364Y-65416000D01*
X112140000Y-65416000D01*
G36*
X112596040Y-64847953D02*
G01*
X112608627Y-65040027D01*
X112629945Y-65203304D01*
X112632988Y-65219727D01*
X112729889Y-65608982D01*
X112866850Y-65976341D01*
X112949636Y-66150670D01*
X113146222Y-66486304D01*
X113377255Y-66792254D01*
X113640451Y-67066829D01*
X113933527Y-67308340D01*
X114254200Y-67515095D01*
X114600185Y-67685404D01*
X114969199Y-67817577D01*
X115315000Y-67901739D01*
X115473969Y-67924071D01*
X115663459Y-67937673D01*
X115868639Y-67942545D01*
X116074681Y-67938687D01*
X116266754Y-67926100D01*
X116430031Y-67904782D01*
X116446454Y-67901739D01*
X116835709Y-67804838D01*
X117203069Y-67667877D01*
X117377397Y-67585091D01*
X117711646Y-67389102D01*
X118017277Y-67158141D01*
X118292129Y-66895087D01*
X118534040Y-66602821D01*
X118740846Y-66284225D01*
X118910387Y-65942178D01*
X119040499Y-65579561D01*
X119116355Y-65268363D01*
X119135070Y-65149299D01*
X119151092Y-65004851D01*
X119163665Y-64847770D01*
X119172038Y-64690809D01*
X119175456Y-64546716D01*
X119173168Y-64428244D01*
X119169003Y-64376909D01*
X119102079Y-63974390D01*
X118999949Y-63600480D01*
X118861408Y-63252535D01*
X118685250Y-62927911D01*
X118470268Y-62623964D01*
X118260243Y-62384199D01*
X117972244Y-62115077D01*
X117820364Y-62002969D01*
X117820364Y-63129742D01*
X117820364Y-65900909D01*
X117127636Y-65900909D01*
X117127636Y-63938182D01*
X116135310Y-63938182D01*
X116123182Y-65589182D01*
X115488182Y-65602030D01*
X115488182Y-63938182D01*
X114565058Y-63938182D01*
X114553000Y-65843182D01*
X113860273Y-65843182D01*
X113860273Y-63141545D01*
X115840318Y-63135644D01*
X117820364Y-63129742D01*
X117820364Y-62002969D01*
X117662318Y-61886309D01*
X117329517Y-61697385D01*
X116972893Y-61547793D01*
X116591497Y-61437021D01*
X116446454Y-61406261D01*
X116287485Y-61383929D01*
X116097995Y-61370326D01*
X115892815Y-61365454D01*
X115686774Y-61369312D01*
X115494700Y-61381900D01*
X115331423Y-61403218D01*
X115315000Y-61406261D01*
X114925745Y-61503162D01*
X114558386Y-61640123D01*
X114384057Y-61722909D01*
X114048423Y-61919495D01*
X113742473Y-62150528D01*
X113467898Y-62413724D01*
X113226387Y-62706800D01*
X113019632Y-63027473D01*
X112849323Y-63373458D01*
X112717150Y-63742472D01*
X112632988Y-64088273D01*
X112610656Y-64247242D01*
X112597054Y-64436732D01*
X112592182Y-64641912D01*
X112596040Y-64847953D01*
G37*
X112596040Y-64847953D02*
X112608627Y-65040027D01*
X112629945Y-65203304D01*
X112632988Y-65219727D01*
X112729889Y-65608982D01*
X112866850Y-65976341D01*
X112949636Y-66150670D01*
X113146222Y-66486304D01*
X113377255Y-66792254D01*
X113640451Y-67066829D01*
X113933527Y-67308340D01*
X114254200Y-67515095D01*
X114600185Y-67685404D01*
X114969199Y-67817577D01*
X115315000Y-67901739D01*
X115473969Y-67924071D01*
X115663459Y-67937673D01*
X115868639Y-67942545D01*
X116074681Y-67938687D01*
X116266754Y-67926100D01*
X116430031Y-67904782D01*
X116446454Y-67901739D01*
X116835709Y-67804838D01*
X117203069Y-67667877D01*
X117377397Y-67585091D01*
X117711646Y-67389102D01*
X118017277Y-67158141D01*
X118292129Y-66895087D01*
X118534040Y-66602821D01*
X118740846Y-66284225D01*
X118910387Y-65942178D01*
X119040499Y-65579561D01*
X119116355Y-65268363D01*
X119135070Y-65149299D01*
X119151092Y-65004851D01*
X119163665Y-64847770D01*
X119172038Y-64690809D01*
X119175456Y-64546716D01*
X119173168Y-64428244D01*
X119169003Y-64376909D01*
X119102079Y-63974390D01*
X118999949Y-63600480D01*
X118861408Y-63252535D01*
X118685250Y-62927911D01*
X118470268Y-62623964D01*
X118260243Y-62384199D01*
X117972244Y-62115077D01*
X117820364Y-62002969D01*
X117820364Y-63129742D01*
X117820364Y-65900909D01*
X117127636Y-65900909D01*
X117127636Y-63938182D01*
X116135310Y-63938182D01*
X116123182Y-65589182D01*
X115488182Y-65602030D01*
X115488182Y-63938182D01*
X114565058Y-63938182D01*
X114553000Y-65843182D01*
X113860273Y-65843182D01*
X113860273Y-63141545D01*
X115840318Y-63135644D01*
X117820364Y-63129742D01*
X117820364Y-62002969D01*
X117662318Y-61886309D01*
X117329517Y-61697385D01*
X116972893Y-61547793D01*
X116591497Y-61437021D01*
X116446454Y-61406261D01*
X116287485Y-61383929D01*
X116097995Y-61370326D01*
X115892815Y-61365454D01*
X115686774Y-61369312D01*
X115494700Y-61381900D01*
X115331423Y-61403218D01*
X115315000Y-61406261D01*
X114925745Y-61503162D01*
X114558386Y-61640123D01*
X114384057Y-61722909D01*
X114048423Y-61919495D01*
X113742473Y-62150528D01*
X113467898Y-62413724D01*
X113226387Y-62706800D01*
X113019632Y-63027473D01*
X112849323Y-63373458D01*
X112717150Y-63742472D01*
X112632988Y-64088273D01*
X112610656Y-64247242D01*
X112597054Y-64436732D01*
X112592182Y-64641912D01*
X112596040Y-64847953D01*
D13*
G04 #@! TO.C,J4*
X137591520Y-58017080D02*
X137591520Y-61117080D01*
X123621520Y-64540180D02*
X123621520Y-71474080D01*
X122605520Y-56488080D02*
X122605520Y-59019180D01*
X122605520Y-59019180D02*
G75*
G03*
X122789520Y-60019080I2808602J-45D01*
G01*
X122789520Y-60019080D02*
G75*
G02*
X123621520Y-64540180I-11867982J-4521122D01*
G01*
D10*
G04 #@! TO.C,J2*
X100703880Y-59739640D02*
X99133880Y-59739640D01*
X100703880Y-60559640D02*
X100703880Y-59739640D01*
X86713880Y-73699640D02*
X92713880Y-73699640D01*
X86713880Y-72819640D02*
X86713880Y-73699640D01*
X92713880Y-72819640D02*
X86713880Y-72819640D01*
X97563880Y-73699640D02*
X95453880Y-73699640D01*
X97563880Y-72819640D02*
X95453880Y-72819640D01*
X86713880Y-71159640D02*
X92713880Y-71159640D01*
X86713880Y-70279640D02*
X86713880Y-71159640D01*
X92713880Y-70279640D02*
X86713880Y-70279640D01*
X97563880Y-71159640D02*
X95453880Y-71159640D01*
X97563880Y-70279640D02*
X95453880Y-70279640D01*
X86713880Y-68619640D02*
X92713880Y-68619640D01*
X86713880Y-67739640D02*
X86713880Y-68619640D01*
X92713880Y-67739640D02*
X86713880Y-67739640D01*
X97563880Y-68619640D02*
X95453880Y-68619640D01*
X97563880Y-67739640D02*
X95453880Y-67739640D01*
X86713880Y-66079640D02*
X92713880Y-66079640D01*
X86713880Y-65199640D02*
X86713880Y-66079640D01*
X92713880Y-65199640D02*
X86713880Y-65199640D01*
X97563880Y-66079640D02*
X95453880Y-66079640D01*
X97563880Y-65199640D02*
X95453880Y-65199640D01*
X86713880Y-63539640D02*
X92713880Y-63539640D01*
X86713880Y-62659640D02*
X86713880Y-63539640D01*
X92713880Y-62659640D02*
X86713880Y-62659640D01*
X97563880Y-63539640D02*
X95453880Y-63539640D01*
X97563880Y-62659640D02*
X95453880Y-62659640D01*
X86713880Y-60999640D02*
X92713880Y-60999640D01*
X86713880Y-60119640D02*
X86713880Y-60999640D01*
X92713880Y-60119640D02*
X86713880Y-60119640D01*
X97563880Y-60999640D02*
X95453880Y-60999640D01*
X97563880Y-60119640D02*
X95453880Y-60119640D01*
X95453880Y-74649640D02*
X95453880Y-59169640D01*
X92713880Y-74649640D02*
X95453880Y-74649640D01*
X92713880Y-59169640D02*
X92713880Y-74649640D01*
X95453880Y-59169640D02*
X92713880Y-59169640D01*
G04 #@! TO.C,J1*
D11*
X92288333Y-92632380D02*
X92288333Y-93346666D01*
X92335952Y-93489523D01*
X92431190Y-93584761D01*
X92574047Y-93632380D01*
X92669285Y-93632380D01*
X91288333Y-93632380D02*
X91859761Y-93632380D01*
X91574047Y-93632380D02*
X91574047Y-92632380D01*
X91669285Y-92775238D01*
X91764523Y-92870476D01*
X91859761Y-92918095D01*
G04 #@! TO.C,J4*
D14*
X131752104Y-64716498D02*
X132466750Y-64716498D01*
X132609679Y-64668855D01*
X132704965Y-64573569D01*
X132752608Y-64430640D01*
X132752608Y-64335354D01*
X132085606Y-65621716D02*
X132752608Y-65621716D01*
X131704461Y-65383501D02*
X132419107Y-65145286D01*
X132419107Y-65764645D01*
G04 #@! TO.C,J2*
D11*
X94422213Y-57542020D02*
X94422213Y-58256306D01*
X94469832Y-58399163D01*
X94565070Y-58494401D01*
X94707927Y-58542020D01*
X94803165Y-58542020D01*
X93993641Y-57637259D02*
X93946022Y-57589640D01*
X93850784Y-57542020D01*
X93612689Y-57542020D01*
X93517451Y-57589640D01*
X93469832Y-57637259D01*
X93422213Y-57732497D01*
X93422213Y-57827735D01*
X93469832Y-57970592D01*
X94041260Y-58542020D01*
X93422213Y-58542020D01*
G04 #@! TD*
M02*
